<svg width="34" height="29" viewBox="0 0 34 29" fill="none" xmlns="http://www.w3.org/2000/svg">
<path d="M0.226318 20.1681V8.77799C1.46244 -1.80879 16.4989 -1.63279 17.443 9.00161C16.8798 15.2526 19.6647 23.7958 12.6103 27.2122C7.21239 29.8273 0.679771 26.1624 0.226318 20.1681ZM8.10687 2.84376C4.93478 3.15021 2.36521 5.90612 2.16436 9.0658C1.94074 12.5837 2.34036 16.3355 2.16436 19.8783C2.97602 28.144 14.6913 28.1543 15.5009 19.8783C15.3249 16.3355 15.7245 12.5837 15.5009 9.0658C15.2586 5.26011 11.8794 2.47934 8.10687 2.84376Z" fill="white"/>
<path d="M26.2222 0.963477C26.891 0.839243 27.4562 1.45627 27.9242 1.88488C34.8606 8.25599 35.1421 19.2817 28.7669 26.1539C28.3859 26.566 27.3175 27.6509 26.8703 27.8808C25.9074 28.3756 24.9674 27.301 25.6258 26.4417C31.9949 21.3109 33.3449 12.1342 28.4956 5.45453C27.6488 4.28673 26.5949 3.36533 25.5803 2.35075C25.3091 1.8062 25.6051 1.07529 26.2242 0.961407L26.2222 0.963477Z" fill="white"/>
<path d="M23.1806 4.65119C23.7106 4.54352 24.0295 4.83547 24.398 5.15227C28.885 9.01179 29.8498 15.8364 26.7854 20.874C26.2843 21.6981 24.6092 23.8308 23.7748 24.2056C22.9404 24.5803 22.197 23.8246 22.4662 22.9612C22.5635 22.6444 23.0087 22.398 23.2344 22.1764C27.7648 17.7351 27.7979 11.248 23.2986 6.77145C22.9611 6.43602 22.4538 6.20411 22.4269 5.63678C22.4082 5.23923 22.7913 4.73194 23.1806 4.65326V4.65119Z" fill="white"/>
<path d="M20.2051 8.34107C20.6875 8.26446 20.9443 8.49429 21.288 8.78003C24.6175 11.5608 24.6175 17.6255 21.1223 20.2592C20.0291 21.0833 18.8986 20.0045 19.5736 19.0355C19.7371 18.8015 20.0457 18.6504 20.2237 18.4558C22.4227 16.0622 22.3812 12.8238 20.2196 10.4282C20.0664 10.2584 19.7972 10.1259 19.6378 9.91055C19.2154 9.33494 19.4742 8.45495 20.203 8.34107H20.2051Z" fill="white"/>
<path d="M7.60366 6.41533C7.70512 5.85007 8.64308 5.44217 9.1131 5.87492C10.4217 7.1276 11.9208 8.28298 13.2025 9.55223C13.7719 10.1154 14.1135 10.5047 13.5337 11.2791L10.0656 14.4491C10.0511 14.5361 10.4279 14.8798 10.5128 14.9585C11.5025 15.8923 12.5647 16.7619 13.5565 17.6916C14.1239 18.4826 13.7304 18.8677 13.1673 19.4226C11.8939 20.6774 10.4093 21.8265 9.11103 23.0668C8.69691 23.5202 7.60159 23.0233 7.60159 22.5264V16.8634L5.57658 18.818C4.66967 19.2611 3.76898 18.2548 4.33631 17.3852C4.65311 16.9007 5.65733 16.0869 6.11492 15.6045C6.46692 15.2339 6.81063 14.8342 7.14399 14.447L4.3653 11.5917C3.70893 10.6538 4.78562 9.56259 5.69253 10.2003C6.32612 10.6455 6.9328 11.6124 7.60159 12.0783V6.41533H7.60366ZM9.54377 12.2088L11.4197 10.5585L9.54377 8.90829V12.2088ZM9.54377 20.0376L11.4197 18.3873L9.54377 16.7371V20.0376Z" fill="white"/>
</svg>
