<svg width="31" height="20" viewBox="0 0 31 20" fill="none" xmlns="http://www.w3.org/2000/svg">
<path d="M23.8823 19.7355C23.2798 19.6216 23.3523 18.6526 23.3875 18.3586C23.4392 17.9403 23.756 17.7519 24.0459 17.7519C24.2571 17.7519 24.4621 17.8472 24.5946 18.0066C24.6836 18.1122 24.7354 18.2426 24.7499 18.3855H28.3817V17.2136H2.59903V18.3855H6.23079C6.24529 18.2426 6.29912 18.1143 6.38609 18.0066C6.5186 17.8472 6.72359 17.7519 6.93479 17.7519C7.22467 17.7519 7.53939 17.9403 7.59115 18.3586C7.62842 18.6526 7.70089 19.6216 7.09629 19.7355L7.07766 19.7396L1.6445 19.7107L1.60723 19.6941C1.52234 19.6589 1.32563 19.4622 1.29043 19.3773C1.20347 19.1702 1.21797 18.6402 1.24902 17.8554C1.25731 17.6318 1.26766 17.3709 1.26766 17.2115C0.801782 17.1659 0.648561 16.8595 0.605079 16.5986C0.474634 15.8139 0.462211 14.8573 0.449787 13.9338C0.443575 13.4948 0.439434 13.0807 0.420799 12.6997C0.406306 12.3933 0.377318 12.0558 0.346259 11.6976C0.24066 10.4677 0.120568 9.07211 0.524328 8.05754C1.0399 6.76551 2.50171 5.75507 3.85172 5.75507C3.88485 5.75507 3.91591 5.75507 3.94697 5.75507C4.09398 5.75921 4.4087 5.85239 4.90771 6.00354C5.10648 6.06359 5.36116 6.1402 5.5061 6.17747L7.88724 1.674L7.89967 1.65743C8.41731 1.03005 9.14822 0.615939 9.90604 0.520693H9.92468H9.94331C10.5707 0.555893 11.2436 0.572457 12.0015 0.572457C13.0657 0.572457 14.1631 0.539328 15.2253 0.506199C16.2896 0.47307 17.3891 0.439941 18.4575 0.439941C19.4037 0.439941 20.234 0.466859 20.9939 0.520693C21.7455 0.574528 22.522 1.00106 23.0707 1.6595L23.0852 1.67607L25.4663 6.18161C25.6092 6.14641 25.8639 6.06773 26.0647 6.00768C26.5637 5.85653 26.8784 5.76336 27.0254 5.75921C27.0586 5.75921 27.0938 5.75921 27.1269 5.75921C28.8558 5.75921 30.5392 7.29971 30.7276 9.05555C30.7587 9.34129 30.7442 9.73469 30.7338 10.0494L30.7297 10.2006C30.7069 10.9211 30.651 11.6748 30.5972 12.4016C30.5599 12.8882 30.5226 13.3913 30.4957 13.8779C30.4791 14.1719 30.4771 14.4866 30.4729 14.8221C30.4667 15.4287 30.4626 16.0561 30.3715 16.6007C30.328 16.8616 30.1768 17.168 29.7089 17.2136C29.7089 17.373 29.7172 17.636 29.7275 17.8575C29.7586 18.6423 29.771 19.1744 29.6861 19.3794C29.6509 19.4663 29.4542 19.661 29.3693 19.6962L29.3321 19.7127L23.8989 19.7417L23.8803 19.7376L23.8823 19.7355ZM29.0401 15.8573L29.3859 9.55662C29.3797 8.28944 28.3527 7.16513 27.1911 7.16513C27.1 7.16513 27.0047 7.17134 26.9136 7.18583C26.3525 7.26451 25.7169 7.47571 25.1019 7.67862C24.5594 7.85876 23.9962 8.04511 23.4744 8.1445L23.4579 8.14864H23.4061C23.0727 8.14864 22.8967 8.01406 22.8056 7.90225C22.7145 7.78629 22.6234 7.57924 22.7021 7.24174C22.7953 6.84833 23.3647 6.70753 24.0459 6.57295C24.0666 6.5688 24.0852 6.56466 24.1039 6.56052L22.0002 2.52086C21.6938 2.1378 21.2755 1.89969 20.851 1.86656C20.1201 1.81065 19.3188 1.78374 18.4016 1.78374C17.3621 1.78374 16.2875 1.81894 15.2502 1.85206C14.2066 1.88519 13.1299 1.92039 12.0822 1.92039C11.3389 1.92039 10.6763 1.90383 10.0593 1.86863C9.71762 1.9059 9.28073 2.15437 9.02812 2.4546L6.89337 6.55431C6.94514 6.56673 7.00311 6.57916 7.06523 6.59365C7.68019 6.73445 8.15849 6.86904 8.25995 7.17755C8.34691 7.44051 8.31585 7.69933 8.17919 7.88775C8.05496 8.05754 7.86033 8.15278 7.62842 8.15278C7.59323 8.15278 7.55802 8.15278 7.52283 8.14657C7.00104 8.08653 6.44406 7.89189 5.85602 7.68484C5.14996 7.43844 4.42112 7.18376 3.77304 7.18376C3.52664 7.18376 3.30923 7.21896 3.11046 7.2935C2.07311 7.67655 1.4333 8.86506 1.65485 9.99765V10.0121L1.94266 15.8532H29.0401V15.8573Z" fill="white"/>
<path d="M18.4639 0.640911C19.3169 0.640911 20.1597 0.661616 20.9858 0.721662C21.7374 0.775497 22.4456 1.2186 22.9177 1.78593L25.3568 6.39914C25.3568 6.39914 25.3671 6.40328 25.3754 6.40328C25.5597 6.40328 26.7875 5.97054 27.0381 5.96225C27.0691 5.96225 27.1023 5.96225 27.1333 5.96225C28.7877 5.96225 30.353 7.44892 30.527 9.07431C30.5601 9.39317 30.5373 9.85905 30.527 10.1903C30.4897 11.3892 30.3593 12.6502 30.293 13.8635C30.2454 14.7083 30.3075 15.7457 30.1708 16.5635C30.1149 16.899 29.8954 17.0087 29.589 17.0087C29.5683 17.0087 29.5497 17.0087 29.529 17.0087C29.4461 17.0874 29.6304 18.9799 29.4979 19.2987C29.4834 19.3339 29.3281 19.4892 29.2929 19.5037L23.9219 19.5327C23.5243 19.4582 23.5575 18.6921 23.5947 18.3856C23.632 18.0937 23.837 17.9612 24.0461 17.9612C24.3236 17.9612 24.6114 18.191 24.5368 18.5947H28.5889V17.0087H2.39218V18.5947H6.44427C6.36973 18.1931 6.65753 17.9612 6.93499 17.9612C7.14619 17.9612 7.35117 18.0937 7.38637 18.3856C7.42364 18.69 7.45677 19.4582 7.05922 19.5327L1.68819 19.5037C1.65299 19.4892 1.49769 19.3339 1.4832 19.2987C1.35068 18.9799 1.53497 17.0874 1.45214 17.0087C1.43144 17.0087 1.41073 17.0087 1.3921 17.0087C1.08358 17.0087 0.866173 16.899 0.810268 16.5635C0.619777 15.4247 0.686035 13.8739 0.63013 12.6895C0.565942 11.3312 0.218088 9.3911 0.719164 8.13427C1.19539 6.9437 2.55161 5.96225 3.85399 5.96225C3.88298 5.96225 3.91404 5.96225 3.94303 5.96225C4.19357 5.97054 5.42348 6.40328 5.60569 6.40328C5.61397 6.40328 5.62225 6.40328 5.62432 6.39914L8.06345 1.78593C8.53139 1.22067 9.20018 0.814838 9.9373 0.721662C10.6185 0.758932 11.3101 0.773426 12.0079 0.773426C14.1426 0.773426 16.3312 0.63884 18.4639 0.63884M12.0824 1.71553C11.3991 1.71553 10.722 1.70104 10.0553 1.6617C9.62051 1.70104 9.12564 2.00748 8.8544 2.34084L6.62026 6.63104C6.60991 6.70559 6.62026 6.71801 6.6389 6.71801C6.64925 6.71801 6.66168 6.71594 6.67617 6.71594C6.68652 6.71594 6.69688 6.71594 6.70723 6.72008C7.01574 6.8174 7.96613 6.95198 8.06345 7.24393C8.18561 7.6187 8.00754 7.94792 7.62863 7.94792C7.60171 7.94792 7.57479 7.94792 7.5458 7.94378C6.41114 7.81126 4.99487 6.98097 3.77324 6.98097C3.51856 6.98097 3.27217 7.01617 3.03819 7.10313C1.87247 7.53381 1.2161 8.84033 1.45007 10.0413L1.74409 16.0645H29.2349L29.5911 9.56917C29.5849 8.23573 28.5413 6.96026 27.1892 6.96026C27.0878 6.96026 26.9863 6.96648 26.8828 6.98304C25.7999 7.13626 24.5327 7.73465 23.4332 7.94585C23.4229 7.94585 23.4146 7.94585 23.4042 7.94585C22.9943 7.94585 22.8058 7.70152 22.9032 7.29362C22.9901 6.92506 24.0151 6.81118 24.3588 6.72215L24.3484 6.58756L22.1764 2.41331C21.8555 2.00334 21.3937 1.70518 20.8678 1.66584C20.0603 1.60579 19.2362 1.58302 18.4018 1.58302C16.3167 1.58302 14.1695 1.71967 12.0803 1.71967M18.4639 0.226798C17.3913 0.226798 16.2898 0.259927 15.2255 0.293056C14.1654 0.326185 13.0701 0.359314 12.0079 0.359314C11.2542 0.359314 10.5854 0.34275 9.96215 0.30755H9.92488L9.88761 0.309621C9.07802 0.413149 8.29742 0.854178 7.74665 1.5209L7.71973 1.55403L7.69903 1.5913L5.40485 5.93119C5.27233 5.89392 5.10875 5.84423 4.9721 5.80282C4.4089 5.63303 4.12524 5.55228 3.95752 5.54607C3.92232 5.54607 3.88919 5.54607 3.85399 5.54607C2.40046 5.54607 0.88895 6.5917 0.334039 7.97898C-0.0883554 9.03911 0.0338077 10.4595 0.141477 11.7122C0.172535 12.0683 0.201523 12.4038 0.216017 12.7061C0.232582 13.0829 0.238793 13.497 0.245005 13.9339C0.257428 14.8657 0.267782 15.8285 0.402368 16.6298C0.468626 17.0211 0.702599 17.2841 1.06081 17.3814C1.05666 17.5263 1.05045 17.7003 1.04424 17.8473C1.00904 18.7625 1.00283 19.2201 1.10222 19.4582C1.15812 19.5948 1.39417 19.8309 1.53082 19.8868L1.60536 19.9178H1.68612L7.05715 19.9468H7.09649L7.13583 19.9406C7.66176 19.8412 7.91022 19.2408 7.79841 18.3359C7.74044 17.8721 7.38637 17.547 6.93499 17.547C6.66375 17.547 6.39872 17.6692 6.22686 17.8763C6.15232 17.9674 6.09641 18.0688 6.06121 18.1806H2.80422V17.4228H28.1727V18.1806H24.9157C24.8805 18.0688 24.8246 17.9674 24.7501 17.8763C24.5782 17.6692 24.3132 17.547 24.042 17.547C23.5906 17.547 23.2365 17.8701 23.1785 18.3359C23.0667 19.2428 23.3131 19.8412 23.8411 19.9406L23.8805 19.9489H23.9198L29.2908 19.9199H29.3716L29.4461 19.8888C29.5828 19.8329 29.8188 19.5948 29.8747 19.4602C29.9741 19.2221 29.9679 18.7645 29.9327 17.8493C29.9265 17.7044 29.9203 17.5284 29.9162 17.3835C30.2744 17.2862 30.5083 17.0253 30.5746 16.6319C30.6678 16.0728 30.674 15.4351 30.6802 14.8201C30.6823 14.4888 30.6864 14.1762 30.703 13.8863C30.7299 13.4018 30.7672 12.8986 30.8044 12.4121C30.8583 11.6811 30.9162 10.9275 30.939 10.2007L30.9432 10.0495C30.9535 9.72861 30.968 9.32899 30.9369 9.02668C30.7382 7.17146 28.9596 5.544 27.1312 5.544C27.094 5.544 27.0588 5.544 27.0215 5.544C26.8538 5.55021 26.5701 5.63096 26.0069 5.80075C25.8703 5.84216 25.7067 5.89185 25.5742 5.92912L23.28 1.58923L23.2593 1.55196L23.2324 1.51883C22.6485 0.818978 21.8182 0.365525 21.0127 0.305479C20.2487 0.249574 19.4122 0.222656 18.4597 0.222656L18.4639 0.226798ZM12.0824 2.12964C13.1343 2.12964 14.213 2.09444 15.2586 2.06132C16.296 2.02819 17.3685 1.99299 18.4038 1.99299C19.3149 1.99299 20.112 2.0199 20.8388 2.07374C21.2032 2.10066 21.5614 2.30564 21.8306 2.63486L23.7976 6.41157C23.2345 6.52752 22.6216 6.70144 22.5056 7.19217C22.4062 7.60835 22.5284 7.87752 22.6485 8.02867C22.7665 8.17775 22.9943 8.35582 23.4104 8.35582C23.4229 8.35582 23.4374 8.35582 23.4498 8.35582H23.4829L23.516 8.34754C24.0523 8.24401 24.6197 8.05559 25.1704 7.87338C25.775 7.67254 26.4024 7.46548 26.9449 7.38887C27.0277 7.37645 27.1126 7.37024 27.1934 7.37024C28.2431 7.37024 29.1707 8.39102 29.1811 9.55675L28.8457 15.6483H2.13957L1.86418 10.0185V9.9895L1.85797 9.96051C1.65506 8.92523 2.23688 7.83818 3.18313 7.49033C3.35913 7.42614 3.55376 7.39301 3.77531 7.39301C4.3882 7.39301 5.10047 7.64148 5.78997 7.88166C6.36352 8.08251 6.95569 8.28956 7.50025 8.35168C7.54373 8.35582 7.58722 8.35996 7.6307 8.35996C7.92679 8.35996 8.18768 8.23159 8.34918 8.01004C8.52518 7.76778 8.56452 7.44064 8.45892 7.11349C8.32848 6.71801 7.85846 6.56686 7.20209 6.41364L9.20225 2.57274C9.41759 2.32428 9.78615 2.11308 10.0657 2.07788C10.6806 2.11308 11.3411 2.12964 12.0824 2.12964Z" fill="white"/>
<path d="M27.831 5.25222C27.5908 5.25222 27.011 5.24808 26.8247 5.20667C26.5265 5.14041 26.3257 4.87538 26.3257 4.54616C26.3257 4.21694 26.5265 3.95398 26.8247 3.88565C26.9986 3.84631 27.6363 3.84424 27.8289 3.84424C28.0215 3.84424 28.6551 3.84631 28.829 3.88565C29.1375 3.95398 29.3466 4.23764 29.3363 4.57515C29.3259 4.90644 29.0982 5.16319 28.7669 5.21702C28.6074 5.24187 28.1788 5.25222 27.8331 5.25222H27.831Z" fill="white"/>
<path d="M27.827 4.05132C28.2494 4.05132 28.6718 4.06374 28.7836 4.08859C29.2329 4.19005 29.2722 4.92717 28.7339 5.01206C28.6034 5.03277 28.2204 5.04312 27.8311 5.04312C27.417 5.04312 26.9967 5.03069 26.8704 5.00171C26.4211 4.90025 26.419 4.18798 26.8704 4.08652C26.9801 4.06167 27.4046 4.04925 27.827 4.04925M27.827 3.63721C27.5143 3.63721 26.9615 3.64342 26.7793 3.68483C26.3838 3.77386 26.1167 4.11965 26.1167 4.54618C26.1167 4.97272 26.3817 5.32057 26.7793 5.40754C26.9677 5.44895 27.4564 5.4593 27.8311 5.4593C28.003 5.4593 28.5827 5.45723 28.7981 5.42203C29.2288 5.3537 29.5269 5.0162 29.5414 4.58345C29.5559 4.15278 29.2743 3.77386 28.8726 3.68483C28.6904 3.64342 28.1396 3.63721 27.827 3.63721Z" fill="white"/>
<path d="M3.1502 5.25222C2.91209 5.25222 2.33854 5.24808 2.15219 5.20667C1.84575 5.13834 1.64697 4.88366 1.64697 4.55651C1.64697 4.22936 1.8561 3.95191 2.15219 3.88565C2.32612 3.84631 2.96799 3.84424 3.15848 3.84424C3.34897 3.84424 3.98464 3.84631 4.15649 3.88565C4.45465 3.95398 4.66378 4.24593 4.65136 4.57929C4.63893 4.91472 4.41945 5.16526 4.09231 5.21702C3.92873 5.24187 3.48149 5.25222 3.14813 5.25222H3.1502Z" fill="white"/>
<path d="M3.16253 4.05132C3.58493 4.05132 4.00525 4.06374 4.11292 4.08859C4.54567 4.18591 4.58915 4.93131 4.06323 5.01206C3.93278 5.03277 3.54351 5.04312 3.15218 5.04312C2.74014 5.04312 2.32602 5.03069 2.19972 5.00171C1.71935 4.89404 1.76283 4.18383 2.19972 4.08652C2.30946 4.06167 2.736 4.04925 3.16253 4.04925M3.16253 3.63721C2.84781 3.63721 2.2929 3.64342 2.11069 3.68483C1.71728 3.77179 1.44397 4.13207 1.44189 4.55654C1.44189 4.97686 1.709 5.3185 2.10862 5.40754C2.29704 5.44895 2.77948 5.4593 3.15218 5.4593C3.32611 5.4593 3.90793 5.45723 4.12741 5.42203C4.55188 5.35577 4.8459 5.02034 4.86039 4.58759C4.87489 4.15485 4.5995 3.77386 4.20402 3.68483C4.03424 3.64549 3.54352 3.63721 3.16046 3.63721H3.16253Z" fill="white"/>
<path d="M20.7708 16.0976C20.6672 16.0976 20.5596 16.0748 20.4643 16.0354C20.4478 16.0272 20.102 15.7849 20.102 15.611V14.849H10.8838V15.611C10.8838 15.7828 10.5401 16.0272 10.5215 16.0354C10.4262 16.0769 10.3206 16.0976 10.215 16.0976C9.90446 16.0976 9.64978 15.9195 9.56489 15.6441C9.49242 15.4081 9.49863 14.2837 9.5359 14.0539C9.57731 13.7889 9.75745 13.588 10.0163 13.5135L10.0432 13.5052L20.7521 13.4907C20.7521 13.4907 20.7687 13.4907 20.7832 13.4907C21.0979 13.4907 21.3733 13.7019 21.4396 13.9918C21.4913 14.2237 21.4913 15.3542 21.4396 15.5861C21.3712 15.8926 21.1021 16.0996 20.7728 16.0996L20.7708 16.0976Z" fill="white"/>
<path d="M20.7809 13.6959C20.988 13.6959 21.1888 13.8284 21.2344 14.0354C21.2778 14.2342 21.2799 15.3419 21.2344 15.5387C21.1826 15.7685 20.9818 15.8906 20.7685 15.8906C20.6919 15.8906 20.6153 15.8762 20.5428 15.8451C20.5138 15.8327 20.3067 15.6277 20.3067 15.6111V14.6421H10.6745V15.6111C10.6745 15.6277 10.4674 15.8327 10.4385 15.8451C10.366 15.8762 10.2894 15.8906 10.2128 15.8906C10.014 15.8906 9.8235 15.7892 9.76138 15.5842C9.70341 15.3937 9.70341 14.3087 9.73861 14.0851C9.76759 13.8988 9.89183 13.7621 10.0699 13.7124L20.7498 13.6979C20.7498 13.6979 20.7706 13.6979 20.7809 13.6979M20.7809 13.2817C20.7664 13.2817 20.754 13.2817 20.7395 13.2817L10.0699 13.2962H10.0119L9.95601 13.3128C9.62265 13.408 9.3804 13.6793 9.32863 14.0209C9.29136 14.259 9.27687 15.4144 9.36383 15.7043C9.47357 16.0687 9.80693 16.3048 10.2128 16.3048C10.3453 16.3048 10.4799 16.2778 10.602 16.2261C10.6062 16.224 11.0886 15.9424 11.0886 15.6111V15.0562H19.8926V15.6111C19.8926 15.9424 20.3751 16.224 20.3792 16.2261C20.5035 16.2799 20.6339 16.3048 20.7685 16.3048C21.1971 16.3048 21.547 16.0335 21.6381 15.6298C21.6961 15.3709 21.6961 14.2052 21.6381 13.9464C21.5532 13.5613 21.1909 13.2838 20.7809 13.2838V13.2817Z" fill="white"/>
<path d="M8.16916 8.16335C7.59355 8.11158 7.34094 7.77615 7.33887 7.46764C7.33887 7.17362 7.56249 6.85268 7.99938 6.80713H8.02008H22.9592C23.2884 6.83612 23.5389 7.03696 23.6176 7.31856C23.688 7.57324 23.599 7.82999 23.3836 7.98735C23.2076 8.11779 22.9053 8.16542 22.7418 8.16749H8.16709L8.16916 8.16335Z" fill="white"/>
<path d="M22.9612 7.00982C23.4188 7.0533 23.5969 7.56887 23.2614 7.81733C23.1455 7.9043 22.9032 7.95606 22.7417 7.95606H8.16911C7.32846 7.87945 7.40093 7.074 8.0221 7.00982H22.9612ZM22.9798 6.5957H7.97861C7.48582 6.64954 7.12968 7.01396 7.13382 7.46741C7.1359 7.87117 7.44648 8.30599 8.13391 8.3681H8.15254H8.17118H22.7438C22.9219 8.3681 23.278 8.32048 23.5099 8.14862C23.7956 7.93743 23.9137 7.59578 23.8184 7.25621C23.717 6.89179 23.396 6.63297 23.0005 6.5957H22.9819H22.9798Z" fill="white"/>
<path d="M3.89733 12.7539C3.46873 12.7539 2.42309 12.7456 1.97378 12.6711C1.6839 12.6234 1.44579 12.4329 1.35468 12.1783C1.27393 11.9526 1.32156 11.7124 1.4872 11.524C1.55346 11.4474 1.88889 11.2755 1.99449 11.2755H5.14588C4.99266 10.9463 4.68001 10.6191 4.34665 10.4659C4.12924 10.3665 3.85799 10.321 3.46252 10.321C3.28238 10.321 3.0981 10.3293 2.91589 10.3396C2.72954 10.3479 2.54526 10.3582 2.36926 10.3582C2.19326 10.3582 2.04625 10.35 1.91374 10.3313C1.4168 10.2651 1.19318 9.92136 1.19732 9.62941C1.20146 9.32089 1.44165 8.98546 1.97171 8.92542C2.28851 8.89022 2.59702 8.87158 2.88897 8.87158C4.29281 8.87158 5.33016 9.2712 5.97411 10.0559C6.32403 10.4845 6.86859 11.5509 6.60356 12.199C6.52488 12.3936 6.33645 12.6379 5.89542 12.6856C5.53515 12.7249 4.73384 12.7518 3.8994 12.7518L3.89733 12.7539Z" fill="white"/>
<path d="M2.88902 9.07866C3.98227 9.07866 5.11487 9.33334 5.81265 10.1885C6.25989 10.7351 6.99701 12.3564 5.87063 12.4806C5.50414 12.522 4.69662 12.5469 3.89738 12.5469C3.09814 12.5469 2.34653 12.522 2.00903 12.4661C1.6032 12.3978 1.36715 11.9774 1.64461 11.6586C1.68188 11.6151 1.9614 11.4805 1.9966 11.4805H5.43374C5.33849 10.9877 4.88504 10.4825 4.43573 10.2754C4.15206 10.145 3.81663 10.1119 3.46463 10.1119C3.11264 10.1119 2.7213 10.1471 2.37138 10.1471C2.2223 10.1471 2.07943 10.1409 1.94484 10.1222C1.22014 10.0249 1.22014 9.21532 1.99867 9.12836C2.28648 9.09523 2.58879 9.07659 2.89316 9.07659M2.88902 8.66455C2.58878 8.66455 2.27199 8.68319 1.94898 8.71839C1.29675 8.79086 0.994453 9.24017 0.990312 9.62529C0.9841 10.0891 1.35266 10.4618 1.88686 10.5343C2.02766 10.5529 2.18503 10.5633 2.36931 10.5633C2.55359 10.5633 2.74201 10.555 2.92629 10.5446C3.10435 10.5363 3.28863 10.5281 3.46256 10.5281C3.82077 10.5281 4.07338 10.5674 4.25973 10.6544C4.44815 10.7413 4.63036 10.8945 4.77323 11.0685H1.9966C1.81647 11.0685 1.43134 11.2776 1.33402 11.3873C1.12076 11.6317 1.05657 11.9526 1.16217 12.2487C1.27812 12.5738 1.57835 12.816 1.94277 12.8761C2.40658 12.9527 3.4667 12.961 3.89945 12.961C4.75459 12.961 5.54762 12.9341 5.91825 12.8926C6.34271 12.845 6.6533 12.6276 6.79617 12.2777C7.11089 11.5074 6.47316 10.3396 6.13566 9.92552C5.4503 9.08902 4.35911 8.66455 2.89109 8.66455H2.88902Z" fill="white"/>
<path d="M27.1004 12.7538C26.2659 12.7538 25.4626 12.7268 25.1044 12.6875C24.6633 12.6378 24.4749 12.3956 24.3962 12.2009C24.1333 11.5528 24.6758 10.4865 25.0257 10.0579C25.6696 9.27108 26.707 8.87354 28.1108 8.87354C28.4028 8.87354 28.7113 8.89217 29.0281 8.92737C29.5581 8.98741 29.7983 9.32285 29.8025 9.63136C29.8066 9.92331 29.583 10.265 29.086 10.3333C28.9535 10.3519 28.8045 10.3602 28.6305 10.3602C28.4566 10.3602 28.2702 10.3519 28.0839 10.3416C27.9017 10.3333 27.7174 10.3229 27.5373 10.3229C27.1418 10.3229 26.8705 10.3664 26.6531 10.4679C26.3198 10.6211 26.0051 10.9482 25.8539 11.2775H29.0384C29.4111 11.3416 29.6699 11.6315 29.6699 11.9835C29.6699 12.2734 29.4712 12.6005 29.0239 12.673C28.5746 12.7476 27.529 12.7558 27.1004 12.7558V12.7538Z" fill="white"/>
<path d="M28.1087 9.07866C28.4131 9.07866 28.7154 9.09937 29.0032 9.13043C29.7818 9.21739 29.7818 10.027 29.0571 10.1243C28.9225 10.1429 28.7775 10.1491 28.6305 10.1491C28.2806 10.1491 27.9017 10.1139 27.5373 10.1139C27.1729 10.1139 26.8498 10.1471 26.5662 10.2775C26.1148 10.4846 25.6634 10.9898 25.5682 11.4826H29.0053C29.5892 11.5778 29.6492 12.3584 28.9908 12.4682C28.6533 12.5241 27.8831 12.5489 27.1025 12.5489C26.3219 12.5489 25.4957 12.5241 25.1292 12.4827C24.0028 12.3564 24.7399 10.7351 25.1872 10.1906C25.885 9.33748 27.0176 9.08073 28.1108 9.08073M28.1087 8.66455C26.6407 8.66455 25.5495 9.08902 24.8642 9.92552C24.5246 10.3396 23.8889 11.5074 24.2037 12.2777C24.3465 12.6276 24.6571 12.845 25.0816 12.8926C25.4543 12.9341 26.2473 12.961 27.1004 12.961C27.5331 12.961 28.5933 12.9527 29.0571 12.8761C29.6223 12.7808 29.877 12.3584 29.8749 11.9816C29.8749 11.5261 29.5436 11.1534 29.0695 11.0747L29.0364 11.0685H26.2245C26.3653 10.8945 26.5496 10.7413 26.738 10.6544C26.9244 10.5695 27.177 10.5281 27.5352 10.5281C27.7091 10.5281 27.8934 10.5363 28.0715 10.5446C28.2558 10.5529 28.4442 10.5633 28.6285 10.5633C28.8127 10.5633 28.9701 10.555 29.1109 10.5343C29.643 10.4618 30.0116 10.0891 30.0075 9.62529C30.0033 9.24017 29.701 8.79086 29.0488 8.71839C28.7237 8.68319 28.409 8.66455 28.1087 8.66455Z" fill="white"/>
</svg>
