<svg width="20" height="32" viewBox="0 0 20 32" fill="none" xmlns="http://www.w3.org/2000/svg">
<path d="M2.92078 31.3136C1.84616 31.1935 0.957885 30.4874 0.647301 29.5163C0.454739 28.9159 0.438174 26.4416 0.549985 25.8432C0.651442 25.311 1.54593 24.4807 2.20022 23.8741C2.39071 23.696 2.60398 23.4993 2.68888 23.402C1.9062 22.7104 1.45896 21.7497 1.39477 20.6191V20.6067V20.5943C1.70122 18.8219 1.8855 16.9542 2.0615 15.1466C2.25199 13.2003 2.44869 11.1877 2.80276 9.28695C2.98497 8.30757 3.8691 6.95136 5.0576 6.95136H8.0682V6.15212H7.00807C6.90454 6.15212 6.56704 5.9285 6.53805 5.90365C6.22746 5.65312 6.10116 5.34667 6.11772 4.8808C6.1405 4.25342 6.26266 3.55771 6.37862 2.88477C6.4573 2.4396 6.52977 2.01928 6.57739 1.61966V1.6031L6.58567 1.5886C6.78859 1.16 7.10952 0.950869 7.62509 0.911529C7.98123 0.882541 8.3705 0.870117 8.81567 0.870117C9.32502 0.870117 9.84888 0.888753 10.3562 0.905317C10.8635 0.921882 11.3852 0.940516 11.8925 0.940516C12.2445 0.940516 12.5592 0.932234 12.8512 0.91567C13.3854 0.983998 13.7146 1.30287 13.8533 1.85985C14.0004 2.4541 14.2799 4.47704 14.255 5.07957C14.2385 5.47505 13.7912 6.15419 13.3605 6.15419H12.3004V6.95343H15.311C16.1786 6.95343 17.3857 8.07153 17.5017 8.98051L18.9718 20.5984C18.9076 21.7434 18.4645 22.7 17.686 23.3916C17.8744 23.6152 18.1435 23.8616 18.4293 24.1205C19.0608 24.694 19.7752 25.3442 19.8476 26.0088C19.9263 26.7459 19.9242 28.9738 19.6633 29.653C19.301 30.5972 18.3651 31.2639 17.3298 31.3157H17.3277L2.91871 31.3115L2.92078 31.3136ZM2.3493 25.7645C2.20643 25.7645 2.08013 25.7728 2.0118 25.7893C1.87307 25.8204 1.75919 25.9488 1.73642 26.104C1.66395 26.572 1.67016 28.4583 1.74884 28.9469C1.82959 29.4625 2.37415 30.005 2.88972 30.0878L17.3899 30.1023C17.9655 30.0402 18.5349 29.5101 18.6239 28.9469C18.7005 28.4604 18.7088 26.5741 18.6363 26.104C18.6239 26.0192 18.5825 25.7583 18.0524 25.7583C17.9696 25.7583 17.8806 25.7645 17.7791 25.7769C17.481 25.8121 17.3236 26.0813 17.1393 26.3898C16.9136 26.7708 16.659 27.2014 16.0771 27.2822L4.15897 27.2449C3.70759 27.1787 3.48397 26.8018 3.26656 26.4353C3.07607 26.1144 2.89593 25.8121 2.5957 25.7748C2.53772 25.7686 2.44662 25.7624 2.35137 25.7624L2.3493 25.7645ZM15.0833 26.0751L13.8616 24.2799L6.58153 24.2654L6.44694 24.3151L5.28329 26.0751H15.0853H15.0833ZM16.2076 25.6154L16.22 25.6113C16.5037 25.0812 16.866 24.752 17.276 24.6526C17.158 24.5014 16.8515 24.2074 16.6548 24.0356C16.5616 24.0583 16.4685 24.0811 16.3753 24.106C16.0461 24.1909 15.7044 24.2778 15.3504 24.2799L16.2076 25.6175V25.6154ZM4.16312 25.6154L5.02033 24.2778C4.66626 24.2778 4.32669 24.1888 3.9954 24.1039C3.90222 24.079 3.80905 24.0563 3.7138 24.0335C3.51917 24.2012 3.20859 24.4973 3.09263 24.6505C3.50675 24.7499 3.86081 25.0729 4.14862 25.6113L4.16104 25.6154H4.16312ZM15.6879 23.0562C16.1103 23.0562 16.6155 22.7787 17.0379 22.3149C17.5182 21.7869 17.7978 21.1264 17.7501 20.6274L16.2925 9.12959C16.102 8.55397 15.5408 8.15435 14.899 8.15435C14.8721 8.15435 14.8451 8.15435 14.8182 8.15435V23.052H15.6899L15.6879 23.0562ZM13.6028 23.0562V14.2045H6.76374V23.0562H13.6028ZM5.47171 8.15642C4.82984 8.15642 4.26871 8.55604 4.07408 9.15029L2.61433 20.6875C2.58535 21.1782 2.87937 21.8325 3.36595 22.3501C3.78834 22.7994 4.26664 23.0562 4.68076 23.0562H5.55246V8.15849C5.52554 8.15849 5.49863 8.15849 5.47171 8.15849V8.15642ZM13.6028 12.9912V8.16678H6.76374V12.9912H13.6028ZM11.0871 6.95343V6.15419H9.28154V6.95343H11.0871ZM13.023 4.93877L12.6711 2.12695H7.73069L7.34557 4.93877H13.023Z" fill="white"/>
<path d="M8.81583 0.973775C9.8304 0.973775 10.8781 1.04417 11.8927 1.04417C12.2178 1.04417 12.5408 1.03796 12.8576 1.01726C13.3607 1.08352 13.634 1.40859 13.752 1.88482C13.897 2.47493 14.1744 4.49787 14.1517 5.07556C14.1372 5.43169 13.7272 6.05079 13.3607 6.05079H12.1971V7.05709H15.3112C16.1477 7.05709 17.2927 8.15655 17.4004 8.99513L18.8705 20.6131C18.8084 21.698 18.3797 22.6774 17.5453 23.3814C18.1147 24.1227 19.6449 25.0772 19.7463 26.0234C19.8271 26.7709 19.8188 28.9657 19.5683 29.62C19.2142 30.5435 18.3114 31.1667 17.3279 31.2164L2.92094 31.2123C1.93535 31.1025 1.05122 30.442 0.74685 29.4875C0.566712 28.9264 0.539793 26.4665 0.653674 25.864C0.796543 25.1082 2.82569 23.5491 2.82569 23.3814C1.99126 22.6774 1.56265 21.698 1.50053 20.6131C2.13827 16.9254 2.22937 12.9665 2.90645 9.30779C3.08866 8.33048 3.95622 7.05709 5.05983 7.05709H8.17395V6.05079H7.0103C6.95854 6.05079 6.66866 5.87686 6.60654 5.8251C6.29388 5.57249 6.21106 5.27847 6.22556 4.88714C6.26283 3.86635 6.56513 2.66335 6.68522 1.63428C6.884 1.21396 7.18837 1.05039 7.63768 1.01519C8.02487 0.984128 8.41828 0.973775 8.81997 0.973775M7.22771 5.04243H13.1412L12.7623 2.02355H7.63975L7.22564 5.04243M9.17818 7.05709H11.1908V6.05079H9.17818V7.05709ZM14.7128 23.1598H15.688C16.7399 23.1598 17.9511 21.6711 17.8518 20.6193L16.3941 9.11936C16.1808 8.46921 15.5679 8.05303 14.8971 8.05303C14.837 8.05303 14.7749 8.05717 14.7128 8.06338V23.1598ZM4.68092 23.1598H5.65615V8.06338C5.59403 8.05717 5.53399 8.05303 5.47187 8.05303C4.80101 8.05303 4.18812 8.46921 3.97486 9.11936L2.51097 20.6752C2.44885 21.7063 3.64771 23.1598 4.68092 23.1598ZM6.66244 13.0948H13.7086V8.06338H6.66244V13.0948ZM6.66244 23.1598H13.7086V14.1011H6.66244V23.1598ZM15.3464 24.1765C15.2822 24.1765 15.218 24.1744 15.1538 24.1661L16.1622 25.7377L16.2926 25.6983C16.5266 25.249 16.8889 24.7997 17.419 24.7314C17.4977 24.6465 16.7875 24.0108 16.6819 23.9239C16.2388 24.0253 15.8019 24.1765 15.3464 24.1765ZM4.20676 25.7377L5.21512 24.1661C5.15093 24.1723 5.08675 24.1765 5.02256 24.1765C4.56496 24.1765 4.12808 24.0253 3.68705 23.9239C3.58352 24.0129 2.87332 24.6465 2.94993 24.7314C3.48206 24.7997 3.84441 25.2511 4.07631 25.6983L4.20676 25.7377ZM5.08882 26.1787H15.2801L13.9177 24.1765L6.56513 24.162L6.38085 24.2283L5.09089 26.1787M16.0607 27.1788L4.15706 27.1415C3.39096 27.0256 3.31849 25.7605 2.60621 25.6735C2.54203 25.6652 2.44885 25.6611 2.34946 25.6611C2.21488 25.6611 2.07201 25.6694 1.98919 25.688C1.80077 25.7294 1.66204 25.8992 1.63305 26.0876C1.55851 26.568 1.56886 28.477 1.64547 28.9616C1.73451 29.5206 2.31012 30.1004 2.87125 30.1873L17.388 30.2039C18.0029 30.1376 18.6261 29.5807 18.7255 28.9616C18.8021 28.475 18.8125 26.568 18.738 26.0876C18.6841 25.7377 18.3632 25.6549 18.0505 25.6549C17.9511 25.6549 17.8538 25.6632 17.7648 25.6735C17.0173 25.7646 17.0567 27.0442 16.0628 27.1788M8.81583 0.766719C8.36859 0.766719 7.97518 0.781213 7.61697 0.80813C7.05999 0.851612 6.71421 1.07937 6.49266 1.54525L6.47816 1.57631L6.47402 1.60944C6.4264 2.00906 6.35393 2.42731 6.27732 2.87041C6.1593 3.54748 6.03713 4.24526 6.01436 4.88092C6.00193 5.21429 6.04335 5.64082 6.47402 5.9866C6.47816 5.98867 6.84879 6.25785 7.00823 6.25785H7.96483V6.85003H5.05776C3.81335 6.85003 2.88988 8.25594 2.70146 9.27051C2.34739 11.1754 2.15069 13.1901 1.9602 15.1385C1.7842 16.944 1.59992 18.8096 1.29348 20.5779L1.28934 20.6006V20.6234C1.35559 21.7436 1.78627 22.7022 2.54203 23.4062C2.44057 23.5077 2.27907 23.6588 2.12999 23.7955C1.29969 24.5658 0.546005 25.3008 0.448689 25.8226C0.334808 26.4272 0.353442 28.9367 0.548075 29.5475C0.871083 30.558 1.79248 31.293 2.89609 31.4152H2.90852H2.92094L17.3279 31.4193C18.4129 31.3655 19.386 30.6718 19.7629 29.6904C20.0403 28.9678 20.03 26.7171 19.9534 25.9965C19.8768 25.2925 19.1479 24.6299 18.5019 24.0419C18.2514 23.8141 18.0133 23.5967 17.8331 23.398C18.5847 22.694 19.0133 21.7394 19.0775 20.6213V20.6027V20.5841L17.6074 8.96614C17.4832 7.99505 16.2409 6.84796 15.3132 6.84796H12.4062V6.25578H13.3628C13.8701 6.25578 14.3422 5.52487 14.3608 5.08177C14.3856 4.47095 14.104 2.43145 13.955 1.83306C13.808 1.23674 13.4394 0.884741 12.8865 0.810201H12.8658H12.8451C12.5553 0.826766 12.2447 0.835048 11.8927 0.835048C11.3875 0.835048 10.8657 0.816413 10.3605 0.799848C9.85111 0.783284 9.32726 0.764648 8.81583 0.764648V0.766719ZM7.46582 4.83537L7.82196 2.22854H12.5801L12.9073 4.83537H7.46582ZM9.38523 6.25578H10.9837V6.84796H9.38523V6.25578ZM4.17777 9.16492C4.36205 8.63071 4.86727 8.26836 5.4491 8.26008V22.9528H4.68092C4.302 22.9528 3.8382 22.7002 3.44065 22.2799C2.97477 21.785 2.69111 21.1638 2.71802 20.6938L4.17984 9.16492H4.17777ZM14.9198 22.9528V8.26008C15.4996 8.27043 16.0069 8.63071 16.1912 9.16492L17.6468 20.6441C17.6903 21.1079 17.4211 21.7374 16.9614 22.2447C16.5577 22.6878 16.0835 22.9528 15.688 22.9528H14.9198ZM6.8695 8.27043H13.5015V12.8878H6.8695V8.27043ZM6.8695 14.3082H13.5015V22.9528H6.8695V14.3082ZM15.5348 24.3753C15.835 24.3525 16.1208 24.2779 16.4003 24.2055C16.4769 24.1868 16.5514 24.1661 16.6281 24.1475C16.773 24.2759 16.9676 24.4622 17.0981 24.601C16.7606 24.7314 16.4583 25.0109 16.2098 25.425L15.5369 24.3753H15.5348ZM3.27293 24.601C3.40131 24.4622 3.59594 24.2779 3.74295 24.1475C3.81956 24.1661 3.8941 24.1848 3.97071 24.2055C4.25024 24.2779 4.53598 24.3504 4.83621 24.3753L4.16328 25.425C3.91481 25.0109 3.61251 24.7314 3.27501 24.601H3.27293ZM6.51543 24.4001L6.60033 24.369L13.808 24.3835L14.8888 25.9717H5.47601L6.51543 24.4001ZM16.0752 27.3859H16.0897C16.7212 27.2989 17.0008 26.8247 17.2264 26.4438C17.4232 26.1125 17.5536 25.9075 17.7896 25.8806C17.887 25.8681 17.9718 25.864 18.0505 25.864C18.4936 25.864 18.5205 26.0441 18.533 26.1228C18.6034 26.5742 18.5951 28.4646 18.5205 28.9326C18.4398 29.4399 17.9077 29.9368 17.3776 30.001L2.88988 29.9844C2.42608 29.9016 1.92293 29.3964 1.85046 28.9326C1.77592 28.4646 1.76971 26.5721 1.83804 26.1228C1.85667 26.0089 1.93535 25.9158 2.03474 25.893C2.09478 25.8806 2.21902 25.8702 2.35154 25.8702C2.44264 25.8702 2.52753 25.8743 2.58344 25.8806C2.83398 25.9116 2.99341 26.1787 3.17769 26.4914C3.3951 26.8599 3.64356 27.2761 4.12808 27.3486H4.14257L4.15706 27.3507L16.0607 27.3879H16.0752V27.3859Z" fill="white"/>
</svg>
