<svg width="29" height="29" viewBox="0 0 29 29" fill="none" xmlns="http://www.w3.org/2000/svg">
<path d="M25.7257 0.33403C26.2599 0.305042 28.3036 0.141468 28.5727 0.48311C28.7653 0.901364 28.7156 1.49769 28.699 1.97391C28.3181 12.9168 22.2927 22.2571 11.7908 25.8309C11.1241 26.0566 9.71199 26.7254 9.39105 25.8351C9.23369 25.3961 9.74305 25.1683 9.05355 24.2884C8.53384 23.6237 5.09257 20.1245 4.50039 19.7518C3.90821 19.3791 2.86878 19.787 2.65966 19.0457C2.54785 18.6544 3.3036 16.5879 3.50859 16.0703C7.17762 6.71757 15.7311 0.893082 25.7278 0.33403H25.7257ZM17.7064 6.88115C12.5549 7.35323 13.2154 15.2089 18.3338 14.8652C23.5785 14.5153 22.9884 6.39663 17.7064 6.88115Z" fill="white"/>
<path d="M4.71796 24.2784C5.41366 24.9783 6.10937 25.7071 6.76781 26.4484C5.8961 27.8812 4.07194 28.4175 2.4714 28.198C1.02407 28.0013 0.759041 27.4133 0.649302 26.0115C0.547844 24.705 1.17315 22.653 2.50453 22.1499C3.23336 22.8642 4.00154 23.5579 4.72003 24.2805L4.71796 24.2784Z" fill="white"/>
<path d="M8.70589 24.5681C8.82598 24.7275 9.02475 24.6986 9.04753 25.1023C9.07652 25.6241 8.68518 25.7628 8.98955 26.2287C8.7473 26.5911 7.66025 26.5973 7.31861 26.2887L2.635 21.6176C2.3327 21.1475 2.23952 20.5533 2.56874 20.0709C2.65778 19.9777 4.20034 19.8617 4.36599 20.1516C5.68079 21.6383 7.52153 22.9966 8.70382 24.5681H8.70589Z" fill="white"/>
<path d="M6.51122 9.78613C4.92931 11.923 3.73874 14.3331 2.77593 16.8095L0.419629 16.6148C-0.0959405 16.2152 0.833742 14.6664 1.1112 14.2068C2.32248 12.1942 4.31435 10.6061 6.51122 9.78613Z" fill="white"/>
<path d="M19.2052 22.4854C18.203 24.6201 16.7702 26.5933 14.7328 27.8357C14.3331 28.08 13.1032 28.7322 12.6995 28.7405C12.0058 28.7571 12.1052 26.5892 12.1425 26.1109L16.002 24.4255L19.2052 22.4854Z" fill="white"/>
</svg>
