<svg width="229" height="60" viewBox="0 0 229 60" fill="none" xmlns="http://www.w3.org/2000/svg">
<g clip-path="url(#clip0_27_445)">
<path d="M52.8714 25.3638C68.525 23.8861 81.6615 13.0366 96.5014 8.49848C113.243 3.37734 133.887 2.42083 150.656 7.86707C162.252 11.634 172.035 20.3905 183.824 23.3245C191.478 25.2295 200.088 25.7131 207.856 27.4031C215.042 28.9642 224.039 30.9552 229.003 36.4927L221.92 32.6747C205.543 26.5702 188.012 28.6848 171.932 21.4733C165.3 18.4989 159.341 14.0656 152.378 11.7334C132.298 5.00826 110.205 7.96379 90.7347 15.1672L66.3252 25.9764C79.9608 22.8006 92.75 26.8147 106.133 28.3785C120.954 30.1088 135.382 31.0787 150.162 28.4644L142.147 30.7375C116.302 37.151 88.2474 22.9833 63.0567 28.631C55.5377 30.3157 49.847 34.397 44.4329 39.5934C43.7765 38.8249 48.8406 34.4158 46.2258 29.4639C45.4826 28.0587 43.3018 27.4461 43.8009 25.3665C46.7412 25.1677 49.9744 25.6406 52.8741 25.3665L52.8714 25.3638ZM60.6887 27.2258C56.1209 27.6423 51.4338 28.5262 46.9311 27.2231C47.7258 29.7944 49.1065 31.9063 47.5522 34.6361L60.6887 27.2258Z" fill="white"/>
<path d="M21.2739 54.4356H30.0324V60.0027H0V44.2309C0 44.016 1.3481 40.7837 1.62748 40.2705C5.54971 33.0348 16.7875 33.5319 20.1401 41.0228C20.3544 41.4984 21.2766 44.0482 21.2766 44.2309V54.4356H21.2739ZM16.8932 54.4356C16.9122 49.5052 17.8969 41.0201 10.9611 40.7622C3.42856 40.4801 4.52711 49.2446 4.38063 54.4356H16.8932Z" fill="white"/>
<path d="M30.0324 8.04443V29.0744H0V23.5072H25.6518V8.04443H30.0324Z" fill="white"/>
<path d="M30.0351 0H25.649V4.33657H30.0351V0Z" fill="white"/>
<path d="M60.6888 27.2258L47.5523 34.6362C49.1065 31.9036 47.7259 29.7945 46.9312 27.2231C51.4366 28.5263 56.121 27.645 60.6888 27.2258Z" fill="white"/>
</g>
<defs>
<clipPath id="clip0_27_445">
<rect width="229" height="60" fill="white"/>
</clipPath>
</defs>
</svg>
