<svg width="56" height="53" viewBox="0 0 56 53" fill="none" xmlns="http://www.w3.org/2000/svg">
<path d="M35.8012 2.71894L39.6551 9.13927L40.1284 9.9278L41.0276 10.1325L48.3442 11.8022L47.6763 19.2545L47.5941 20.1702L48.1993 20.8617L53.134 26.5L48.1993 32.1383L47.5941 32.8298L47.6763 33.7455L48.3442 41.1978L41.0276 42.8675L40.1284 43.0722L39.6551 43.8607L35.8012 50.2811L28.8975 47.3467L28.0502 46.9869L27.2029 47.3467L20.2992 50.2811L16.4453 43.8607L15.9719 43.0722L15.0727 42.8675L7.75618 41.1978L8.42407 33.7455L8.5062 32.8298L7.90099 32.1383L2.96637 26.5L7.90099 20.8617L8.5062 20.1702L8.42407 19.2545L7.75618 11.8022L15.0727 10.1325L15.9719 9.9278L16.4453 9.13927L20.2992 2.71894L27.2029 5.65333L28.0502 6.01313L28.8975 5.65333L35.8012 2.71894ZM36.6874 0L28.0502 3.67337L19.4108 0L14.5886 8.03187L5.43476 10.1217L6.26909 19.4463L0.0959473 26.5L6.26909 33.5537L5.43476 42.8783L14.5886 44.9681L19.4108 53L28.048 49.3266L36.6852 53L41.5074 44.9681L50.6612 42.8783L49.8269 33.5537L56.0001 26.5L49.8269 19.4463L50.6612 10.1217L41.5074 8.03187L36.6874 0Z" fill="white"/>
<path d="M12.6971 30.2285V22.1645H14.6291L18.0971 26.8205V22.1645H20.1491V30.2285H18.2291L14.7491 25.5605V30.2285H12.6971ZM21.5917 30.2285V22.1645H27.4957V23.9645H23.7757V25.2845H26.3437V27.0245H23.7757V28.4285H27.6397V30.2285H21.5917ZM30.5038 30.2285L28.1758 22.1645H30.3598L31.6558 27.1445L32.9638 22.1645H35.0158L36.3238 27.1445L37.6198 22.1645H39.8038L37.4758 30.2285H35.2918L33.9958 25.2485L32.6878 30.2285H30.5038ZM40.7298 27.5405L40.5978 22.1645H42.7938L42.6618 27.5405H40.7298ZM41.7018 30.3725C41.3258 30.3725 41.0338 30.2725 40.8258 30.0725C40.6258 29.8645 40.5258 29.5725 40.5258 29.1965C40.5258 28.8285 40.6258 28.5445 40.8258 28.3445C41.0338 28.1365 41.3258 28.0325 41.7018 28.0325C42.0698 28.0325 42.3538 28.1365 42.5538 28.3445C42.7618 28.5445 42.8658 28.8285 42.8658 29.1965C42.8658 29.5725 42.7618 29.8645 42.5538 30.0725C42.3538 30.2725 42.0698 30.3725 41.7018 30.3725Z" fill="#F9F9F9"/>
</svg>
