<svg width="29" height="30" viewBox="0 0 29 30" fill="none" xmlns="http://www.w3.org/2000/svg">
<path d="M24.6469 0.342285C24.9368 0.423037 25.2349 0.466519 25.5248 0.551412C27.3448 1.08355 28.6037 2.73585 28.7714 4.60971V24.572C28.6161 26.8807 26.8065 28.6903 24.5061 28.8891H4.49204C2.61818 28.7214 0.965871 27.4646 0.433737 25.6425C0.348844 25.3526 0.305361 25.0544 0.224609 24.7646V4.47099C0.473077 2.36315 2.21028 0.553483 4.35124 0.344356H24.6448L24.6469 0.342285ZM4.4527 1.19536C2.82523 1.35893 1.50836 2.54743 1.14394 4.13141C1.00935 11.103 1.00935 18.1284 1.14394 25.1C1.47937 26.539 2.5747 27.6364 4.01581 27.9719C10.9874 28.1064 18.0128 28.1064 24.9844 27.9719C26.4234 27.6364 27.5208 26.5411 27.8563 25.1C27.9908 18.1284 27.9908 11.103 27.8563 4.13141C27.4753 2.48946 26.088 1.29267 24.3984 1.17672L4.4527 1.19536Z" fill="white"/>
<path d="M4.49206 29.0941C2.47948 28.9161 0.775403 27.5516 0.234987 25.6984C0.187364 25.5369 0.154236 25.3754 0.119036 25.218C0.0900481 25.0834 0.0610601 24.9489 0.0258606 24.8163L0.0175781 24.7604V4.44202C0.284681 2.1996 2.13783 0.348522 4.33056 0.135254H24.6738L24.7007 0.141466C24.8333 0.178736 24.9678 0.205653 25.1024 0.234641C25.2598 0.26777 25.4213 0.30297 25.5828 0.350592C27.436 0.891009 28.8005 2.59508 28.9765 4.58903L28.9806 24.5679C28.8149 26.9863 26.9411 28.8829 24.5227 29.0921H4.48999L4.49206 29.0941ZM0.433761 24.7356C0.468961 24.8681 0.497948 25.0006 0.526936 25.1331C0.560065 25.2884 0.591124 25.4375 0.634605 25.5825C1.1274 27.272 2.68653 28.5185 4.51277 28.68H24.5082C26.703 28.4875 28.4195 26.7523 28.5706 24.5534L28.5665 4.6056C28.405 2.798 27.1606 1.23886 25.4689 0.74607C25.3219 0.702588 25.1749 0.671529 25.0196 0.6384C24.8871 0.609413 24.7525 0.580425 24.6221 0.545225H4.35541C2.37595 0.739858 0.684299 2.42737 0.435832 4.47722V24.7315L0.433761 24.7356ZM14.4991 28.2783C10.9957 28.2783 7.49023 28.2452 4.00962 28.1769L3.96614 28.1707C2.45256 27.8187 1.29304 26.6591 0.941048 25.1456L0.934837 25.1021C0.80025 18.1429 0.80025 11.0844 0.934837 4.12523L0.941048 4.08174C1.32824 2.40252 2.73001 1.15811 4.43201 0.986255H4.45272L24.3984 0.96555C26.1895 1.08771 27.6554 2.33833 28.0571 4.07967L28.0633 4.12316C28.1979 11.0823 28.1979 18.1409 28.0633 25.1L28.0571 25.1435C27.7051 26.6571 26.5456 27.8166 25.032 28.1686L24.9886 28.1748C21.5079 28.2411 18.0045 28.2763 14.4991 28.2763V28.2783ZM4.04068 27.7648C10.9812 27.8973 18.017 27.8973 24.9575 27.7648C26.2992 27.4439 27.3283 26.4169 27.6492 25.0731C27.7838 18.1326 27.7838 11.0968 27.6492 4.15628C27.2807 2.60543 25.9721 1.49147 24.3839 1.38173L4.46307 1.40037C2.94949 1.55773 1.70302 2.66134 1.34895 4.15421C1.21436 11.0947 1.21436 18.1305 1.34895 25.071C1.66989 26.4128 2.69688 27.4418 4.04068 27.7628V27.7648Z" fill="white"/>
<path d="M5.33885 3.08199L23.5205 3.06543C24.7069 3.15446 25.68 3.95991 25.9741 5.10907C26.0983 11.4305 26.0983 17.8037 25.9741 24.1251C25.7256 25.1003 24.9802 25.8437 24.007 26.0921C17.6856 26.2164 11.3124 26.2164 4.991 26.0921C3.83977 25.7981 3.03639 24.825 2.94735 23.6385C2.74858 20.9861 3.10264 18.0853 2.94735 15.408C3.00119 14.9049 3.65548 14.8883 3.71553 15.408L3.71967 23.682C3.85219 24.6283 4.5686 25.3198 5.52727 25.4006H23.5184C24.4646 25.2929 25.1769 24.5806 25.2825 23.6344V5.64328C25.2017 4.65355 24.4605 3.91229 23.4708 3.82947H5.52934C4.57067 3.91022 3.85426 4.60386 3.72174 5.54803L3.7176 13.8738C3.67619 14.3686 2.99084 14.3686 2.94942 13.8738C3.08401 11.18 2.77343 8.31637 2.94942 5.64121C3.03846 4.28706 3.99506 3.24557 5.34299 3.07785L5.33885 3.08199Z" fill="white"/>
<path d="M14.4969 26.3921C11.3186 26.3921 8.14029 26.3611 4.98475 26.299L4.93713 26.2928C3.69686 25.976 2.83344 24.9407 2.73819 23.6549C2.6326 22.2593 2.68022 20.7789 2.72577 19.346C2.76718 18.0416 2.81066 16.6916 2.73819 15.4202V15.4037V15.3871C2.77339 15.0538 3.01565 14.8198 3.32623 14.8177C3.57056 14.8177 3.87286 14.9937 3.91841 15.385V15.4078L3.92463 23.6673C4.04886 24.51 4.69695 25.1229 5.54173 25.1954H23.5039C24.3445 25.0939 24.974 24.4665 25.0713 23.6238V5.64512C24.9988 4.77963 24.33 4.11291 23.448 4.03629H5.5231C4.69488 4.10876 4.04679 4.72165 3.92256 5.56437L3.91841 13.8756C3.88736 14.2607 3.59748 14.4533 3.32623 14.4533C3.05499 14.4533 2.76718 14.2607 2.73612 13.8922V13.8777V13.8632C2.80031 12.5815 2.76304 11.2336 2.72577 9.93118C2.68643 8.50664 2.64295 7.0324 2.73612 5.62856C2.83137 4.16053 3.86665 3.05278 5.3119 2.87264H5.33675L23.5184 2.854C24.8207 2.95132 25.856 3.81474 26.1728 5.05501L26.179 5.10263C26.3033 11.4137 26.3033 17.8138 26.179 24.1249L26.1728 24.1725C25.9036 25.2285 25.1127 26.0194 24.0567 26.2886L24.0091 26.2948C20.8535 26.3569 17.6752 26.388 14.4969 26.388V26.3921ZM5.01788 25.8849C11.3082 26.0091 17.6856 26.0091 23.9759 25.8849C24.8642 25.6488 25.5309 24.9842 25.7649 24.0959C25.8891 17.8055 25.8891 11.4282 25.7649 5.13783C25.4854 4.08599 24.6013 3.35301 23.5039 3.27226L5.35124 3.29089C4.11719 3.45032 3.23306 4.40071 3.15024 5.66168C3.05913 7.04482 3.10054 8.50871 3.14195 9.92497C3.17922 11.2294 3.21649 12.5794 3.15231 13.8735C3.17094 14.0309 3.29103 14.0433 3.3283 14.0433C3.36557 14.0433 3.49188 14.0309 3.50637 13.8611L3.51258 5.52296C3.65959 4.47732 4.4609 3.71536 5.50654 3.62632H23.4666C24.5702 3.7195 25.3943 4.54151 25.4875 5.62856V23.659C25.3674 24.7067 24.5868 25.4894 23.5391 25.6053H23.5163L5.52517 25.6095C4.4609 25.5204 3.65959 24.7585 3.51258 23.7128V23.6839L3.50637 15.4223C3.48981 15.3022 3.42355 15.2318 3.33037 15.2318C3.25583 15.2318 3.17301 15.2815 3.15231 15.4161C3.22478 16.7019 3.18129 18.054 3.13988 19.3605C3.09433 20.783 3.04671 22.251 3.15024 23.6238C3.23306 24.7212 3.96397 25.6074 5.01581 25.8849H5.01788Z" fill="white"/>
<path d="M12.7661 17.164V21.419C12.7661 21.6095 12.6232 21.7585 12.4389 21.7834C11.9068 21.8579 10.4491 21.8393 9.89215 21.7875C9.60641 21.7627 9.53187 21.6861 9.4946 21.4065L9.48218 7.98309C9.51117 7.63938 9.51531 7.4758 9.89215 7.44268C12.0476 7.54827 14.3211 7.31016 16.462 7.44268C21.5991 7.75947 22.7607 14.8988 18.0046 16.8078C16.3999 17.4518 14.466 17.0501 12.7661 17.164ZM16.5904 8.0949H10.1758V21.1394H12.0766V16.8844C12.0766 16.7147 12.2195 16.5283 12.4037 16.52C15.1431 16.3875 18.2034 17.2426 19.8308 14.4018C21.3279 11.7867 19.6072 8.36201 16.5904 8.0949Z" fill="white"/>
<path d="M11.2463 22.0399C10.7183 22.0399 10.1758 22.0234 9.87354 21.9944C9.49256 21.9592 9.33933 21.8122 9.28964 21.4332V21.4063L9.27515 7.98288V7.93732C9.3062 7.61639 9.33312 7.28303 9.87354 7.2354H9.88803H9.90253C10.9316 7.2851 12.0083 7.25611 13.0498 7.22919C14.1824 7.19813 15.3543 7.16708 16.4745 7.23747C19.2553 7.40933 20.8268 9.50681 21.1498 11.509C21.4708 13.5009 20.6467 15.9711 18.0812 17.0002C16.9631 17.4495 15.7063 17.4101 14.493 17.3708C13.965 17.3542 13.4618 17.3377 12.9752 17.3605V21.4188C12.9752 21.7086 12.762 21.9467 12.47 21.9882C12.2112 22.0234 11.735 22.0399 11.2484 22.0399H11.2463ZM9.70375 21.3939C9.72653 21.5658 9.73067 21.5658 9.91288 21.5823C10.4636 21.632 11.9068 21.6486 12.4141 21.5782C12.5011 21.5658 12.5632 21.4995 12.5632 21.4188V16.9712L12.7558 16.9588C13.3252 16.9215 13.9256 16.9401 14.5075 16.9588C15.6794 16.996 16.8927 17.0333 17.9301 16.6171C20.4438 15.6088 21.0173 13.2711 20.744 11.5753C20.4686 9.87123 19.1807 7.8193 16.4517 7.65159C15.3502 7.58326 14.1886 7.61432 13.0643 7.64538C12.0186 7.67436 10.9399 7.70335 9.89839 7.65159C9.71825 7.66815 9.71825 7.67643 9.6934 7.97459V8.00151L9.70582 21.3939H9.70375ZM12.2837 21.3463H9.96878V7.88763H16.607C18.073 8.01808 19.365 8.89392 20.0648 10.2315C20.7792 11.5981 20.7585 13.1945 20.0089 14.5031C18.6651 16.8532 16.373 16.791 14.1596 16.7289C13.5819 16.7124 12.9835 16.6979 12.412 16.7248C12.3458 16.7289 12.2816 16.8159 12.2816 16.8822V21.3442L12.2837 21.3463ZM10.3829 20.9322H11.8696V16.8842C11.8696 16.6213 12.0808 16.3272 12.3934 16.3127C12.9794 16.2838 13.5861 16.3003 14.17 16.3169C16.3606 16.3769 18.427 16.4328 19.6487 14.2981C20.3278 13.1137 20.3444 11.6643 19.6963 10.4241C19.0648 9.21486 17.899 8.42184 16.578 8.30174H10.3808V20.9322H10.3829Z" fill="white"/>
<path d="M12.174 14.4764C12.1223 14.4184 12.0829 14.1678 12.0746 14.0788C11.998 13.1305 12.0084 11.532 12.0746 10.5775C12.0953 10.269 12.1181 10.0433 12.4846 10.0371C13.8843 10.2193 16.2675 9.63953 17.4457 10.4367C19.2346 11.6459 18.4582 14.4101 16.3317 14.5757C15.0935 14.6731 13.7352 14.4991 12.4846 14.5757C12.4059 14.5757 12.2217 14.5281 12.174 14.4764ZM12.7662 13.9256H16.3731C17.2966 13.9256 17.8971 12.8137 17.7666 11.971C17.6776 11.4016 16.957 10.6872 16.3731 10.6872H12.7662V13.9256Z" fill="white"/>
<path d="M15.462 14.8118C15.0872 14.8118 14.7083 14.7994 14.3356 14.7869C13.7227 14.7662 13.0891 14.7455 12.4969 14.7828C12.3996 14.7828 12.1304 14.7372 12.0207 14.6151C11.9027 14.4867 11.8716 14.1347 11.8696 14.0954C11.7867 13.0787 11.8054 11.4699 11.8696 10.563C11.8903 10.2752 11.9213 9.84036 12.4824 9.83H12.4969H12.5114C12.9856 9.89212 13.5861 9.86313 14.2217 9.83C15.4599 9.76996 16.7416 9.70577 17.5636 10.2607C18.456 10.8632 18.8391 11.884 18.5637 12.9255C18.2883 13.967 17.4187 14.6938 16.3503 14.7786C16.0604 14.8014 15.7643 14.8097 15.4641 14.8097L15.462 14.8118ZM13.2196 14.348C13.5943 14.348 13.9753 14.3604 14.3501 14.3728C15.0065 14.3956 15.6856 14.4184 16.3151 14.3687C17.2075 14.2983 17.9322 13.6916 18.162 12.822C18.3401 12.1449 18.2158 11.2069 17.3296 10.6065C16.6236 10.1282 15.3585 10.1903 14.2404 10.2462C13.5923 10.2772 12.9794 10.3083 12.4721 10.2441C12.3272 10.2462 12.3023 10.2586 12.2795 10.592C12.2174 11.4885 12.2008 13.0973 12.2795 14.0622C12.2857 14.1451 12.3106 14.2734 12.3313 14.3335C12.3748 14.35 12.4514 14.3687 12.4824 14.3687C12.7226 14.3542 12.9711 14.348 13.2216 14.348H13.2196ZM16.373 14.1326H12.5591V10.4781H16.373C17.0791 10.4781 17.8721 11.3001 17.9715 11.9378C18.0585 12.4907 17.8659 13.1388 17.4828 13.5839C17.1805 13.9359 16.7871 14.1306 16.373 14.1306V14.1326ZM12.9752 13.7185H16.3751C16.7478 13.7185 17.0128 13.499 17.1702 13.3168C17.4725 12.9628 17.6319 12.4348 17.5636 12.002C17.487 11.5051 16.8306 10.8922 16.3751 10.8922H12.9752V13.7185Z" fill="white"/>
</svg>
