<svg width="12" height="13" viewBox="0 0 12 13" fill="none" xmlns="http://www.w3.org/2000/svg">
<path d="M5.99411 1.02625C8.08462 1.02625 9.35651 3.32248 8.01869 4.92343C7.75498 5.23643 7.43632 5.46221 7.08744 5.61358C7.96101 5.69824 8.79062 5.93941 9.4142 6.52181C10.7713 7.78923 10.307 9.4928 10.3894 11.1143C10.3922 11.1553 10.3812 11.1784 10.3537 11.2092C10.3152 11.2502 9.87846 11.417 9.7878 11.4504C9.44442 11.571 9.02687 11.6761 8.66425 11.748C7.88409 11.9045 7.09019 11.9763 6.29354 11.9763C4.70299 11.9763 3.1042 11.6941 1.60156 11.2554L1.59606 8.45115C1.80484 6.78094 3.11244 5.70851 4.89254 5.61614C4.28544 5.35445 3.77998 4.87468 3.54098 4.20505C3.01629 2.74008 4.10962 1.18019 5.74687 1.04164C5.82929 1.03395 5.9117 1.03138 5.99411 1.03138M5.99411 0C5.87873 0 5.76336 0.00513124 5.64798 0.0153937C4.52993 0.110322 3.53549 0.672193 2.91465 1.55733C2.29382 2.44504 2.14273 3.52773 2.49985 4.52575C2.57402 4.731 2.66467 4.92599 2.77455 5.11072C1.52464 5.73673 0.689532 6.87586 0.508226 8.328L0.499985 8.38958V8.45115L0.505479 11.2554V12.0071L1.27466 12.2329C3.01904 12.7434 4.70574 13 6.29629 13C7.19732 13 8.07089 12.9153 8.89775 12.7511C9.16971 12.6973 9.69715 12.5792 10.1779 12.4099C10.9361 12.1431 11.0734 11.9994 11.1751 11.8942C11.4003 11.6607 11.5075 11.3708 11.4882 11.0604C11.4718 10.7243 11.48 10.3754 11.4882 10.0059C11.5239 8.70259 11.5652 7.08111 10.1916 5.7983C9.90043 5.52635 9.57078 5.30057 9.19718 5.11841C9.78231 4.14604 9.82626 2.97099 9.28784 1.94474C8.66425 0.74403 7.40061 0 5.99411 0Z" fill="#F9F9F9"/>
</svg>
