<svg width="41" height="24" viewBox="0 0 41 24" fill="none" xmlns="http://www.w3.org/2000/svg">
<path d="M15.6957 16.0874C17.2031 12.9339 21.4332 12.4991 23.9552 14.7601L25.0878 16.0832C26.092 15.137 29.0591 11.3479 30.229 11.1615C31.5976 10.9462 37.7596 10.9462 39.1262 11.1615C40.9835 11.4555 40.8095 14.0913 39.3229 14.375C37.5526 14.7104 32.5045 13.9133 31.2643 14.4785C29.5001 16.4663 27.1666 18.2573 25.4688 20.2616C25.1002 20.6964 25.0029 21.2058 24.7027 21.5826C22.189 24.7402 18.3129 24.732 15.8054 21.5826C15.5052 21.2058 15.4079 20.6964 15.0393 20.2616C13.3415 18.2573 11.0059 16.4663 9.24384 14.4785C6.79851 14.0831 3.95977 14.669 1.55585 14.3854C-0.332507 14.1617 -0.570621 11.8179 1.22041 11.1926C3.96805 11.4183 7.64537 10.7474 10.2791 11.1636C11.3807 11.3375 14.3105 14.9506 15.2174 15.9072L15.6957 16.0874ZM19.6298 16.6982C17.4433 17.1993 17.9547 21.1333 20.6837 20.6053C23.2077 20.1167 22.5741 16.0232 19.6298 16.6982Z" fill="white"/>
<path d="M33.467 10.4055C33.2785 10.4055 33.088 10.3537 32.9183 10.246C27.7149 6.9787 21.9567 5.97655 15.8071 7.26651C11.1691 8.23968 8.03425 10.2212 8.0032 10.2419C7.52282 10.5504 6.88095 10.4096 6.57244 9.92925C6.26392 9.44888 6.40265 8.80908 6.88302 8.50057C7.02175 8.41153 10.3139 6.31819 15.3019 5.25807C19.9234 4.27662 26.9219 4.03851 34.0177 8.49436C34.5022 8.79873 34.6472 9.43646 34.3449 9.92097C34.1482 10.2336 33.8107 10.4055 33.467 10.4055Z" fill="white"/>
<path d="M28.3316 4.31369C28.1701 4.31369 28.0086 4.27642 27.8554 4.19774C20.4821 0.375484 13.1358 4.15426 13.0633 4.1936C12.5581 4.4607 11.9328 4.26607 11.6657 3.76292C11.3986 3.25771 11.5891 2.6324 12.0943 2.36529C12.4318 2.18722 20.4511 -1.97253 28.8099 2.36115C29.3172 2.62411 29.516 3.24942 29.253 3.75671C29.0687 4.11285 28.7064 4.31576 28.3337 4.31576L28.3316 4.31369Z" fill="white"/>
</svg>
