<svg width="29" height="28" viewBox="0 0 29 28" fill="none" xmlns="http://www.w3.org/2000/svg">
<path d="M4.1132 26.9824C2.50437 26.8333 1.25582 25.6055 1.07568 23.9946V23.9821V8.49849C1.16265 6.97456 2.70314 5.4879 4.18567 5.4879H11.151V3.75691C11.1365 3.75691 11.122 3.75691 11.1096 3.75691C10.1675 3.75691 9.10739 3.15437 8.99351 2.03834C8.94175 1.51863 8.84443 0.551678 9.80517 0.253517L9.83623 0.243164H19.0502L19.0792 0.251446C19.3235 0.325986 19.895 0.700758 19.895 1.09209V2.12116C19.895 2.29716 19.6217 2.79824 19.6196 2.80238C19.2614 3.40491 18.5761 3.7507 17.7416 3.7507H17.7375V5.4879H24.7029C25.0321 5.4879 25.6325 5.68046 25.9204 5.81504C26.9225 6.27678 27.6099 7.21474 27.8108 8.38461V8.40118L27.8128 24.1188L27.8087 24.1374C27.5209 25.6945 26.349 26.8105 24.825 26.9783H24.8022L4.1339 26.9824H4.11527H4.1132ZM2.35943 23.8186C2.44018 24.829 3.21872 25.6075 4.25193 25.6945H24.649C25.6595 25.6138 26.438 24.8352 26.525 23.802C26.5022 21.8143 26.5125 19.7706 26.525 17.7953C26.5415 14.6605 26.5581 11.4201 26.4483 8.24795C26.1771 7.34105 25.4855 6.84618 24.3881 6.77578L4.35752 6.79235C3.2974 6.82962 2.47745 7.57709 2.36564 8.61237V23.8206L2.35943 23.8186ZM16.4455 5.4879V3.74241H12.4389V5.4879H16.4455ZM12.1242 2.42139C12.8054 2.42139 13.5053 2.44417 14.1823 2.46488C14.8573 2.48558 15.5531 2.50836 16.2281 2.50836C16.814 2.50836 17.3275 2.49179 17.7955 2.45659C18.1164 2.43175 18.3338 2.34685 18.4601 2.1957C18.5781 2.05491 18.6299 1.83543 18.6196 1.53105H10.2607C10.2524 1.75881 10.2814 2.01556 10.4222 2.1957C10.5319 2.3365 10.6997 2.41932 10.9316 2.44831C11.298 2.42968 11.6873 2.42139 12.1221 2.42139H12.1242Z" fill="white"/>
<path d="M19.0171 0.452315C19.2407 0.520644 19.6859 0.845722 19.6859 1.09419V2.12326C19.6859 2.20608 19.4975 2.60156 19.4395 2.69887C19.0813 3.29934 18.4125 3.54573 17.7396 3.54573C17.6692 3.54573 17.5988 3.54366 17.5284 3.53745V5.69705H24.7008C24.9866 5.69705 25.5622 5.87926 25.8334 6.00556C26.8149 6.45901 27.4257 7.37006 27.6058 8.42191V24.1023C27.3429 25.5268 26.2641 26.6139 24.8023 26.7754H4.13393C2.62863 26.6387 1.45048 25.4709 1.28276 23.9739V8.50059C1.36145 7.11124 2.79013 5.69705 4.18569 5.69705H11.3581V3.53745C11.2753 3.5478 11.1925 3.55195 11.1096 3.55195C10.2069 3.55195 9.29584 2.97426 9.20059 2.01973C9.13433 1.35922 9.1364 0.680077 9.86731 0.452315H19.0192M10.9254 2.65746C11.3188 2.63676 11.7205 2.62848 12.1242 2.62848C13.4784 2.62848 14.8739 2.71751 16.2281 2.71751C16.7644 2.71751 17.2923 2.70302 17.8121 2.66575C18.6568 2.60156 18.8991 2.13775 18.8121 1.32609H10.0723C9.98533 2.00524 10.182 2.57257 10.9254 2.65746ZM12.2319 5.69498H16.6525V3.53538H12.2319V5.69498ZM4.23539 25.9016H24.6491C25.7816 25.8126 26.6368 24.9512 26.732 23.8186C26.6782 18.6194 26.8335 13.3975 26.6534 8.21278C26.3407 7.12781 25.4793 6.63501 24.3923 6.56668L4.35548 6.58325C3.20218 6.62466 2.27663 7.44253 2.15654 8.59997V23.8186C2.24351 24.9512 3.10486 25.8063 4.23539 25.9016ZM19.0792 0.038203H9.80313L9.74308 0.0568381C8.62083 0.406763 8.73679 1.56628 8.78648 2.06114C8.9045 3.23308 9.95428 3.89359 10.944 3.95985V5.28087H4.18569C2.57479 5.28087 0.961828 6.83172 0.868652 8.47367V8.48609V8.49852V24.0174C1.06121 25.7256 2.38637 27.03 4.09459 27.1874H4.11322H4.13186H24.8002L24.823 27.1853H24.8458C26.4629 27.0052 27.7052 25.8229 28.0096 24.1747L28.0158 24.1375V8.38464L28.0096 8.34944C27.7984 7.11124 27.0654 6.11737 26.0011 5.62665C25.7402 5.50656 25.088 5.28087 24.6967 5.28087H17.9384V3.95156C18.7562 3.8998 19.425 3.52503 19.7915 2.91007C19.7936 2.90593 20.098 2.37173 20.098 2.12326V1.09419C20.098 0.562056 19.4188 0.141731 19.1351 0.0547679L19.0772 0.0361328L19.0792 0.038203ZM10.474 1.7402H18.4104C18.398 1.88514 18.3628 1.99488 18.3028 2.06528C18.2158 2.17088 18.0398 2.233 17.781 2.25163C17.3172 2.28683 16.8099 2.3034 16.2281 2.3034C15.5572 2.3034 14.8615 2.28062 14.1886 2.25992C13.5094 2.23714 12.8075 2.21436 12.1242 2.21436C11.6935 2.21436 11.3064 2.22265 10.9419 2.24128C10.7763 2.21643 10.6583 2.16053 10.5879 2.06942C10.5278 1.99281 10.4906 1.881 10.4761 1.7402H10.474ZM12.646 3.94949H16.2384V5.28087H12.646V3.94949ZM4.36376 6.99943L24.3799 6.98287C25.3675 7.04912 25.9928 7.48601 26.2413 8.28318C26.349 11.4429 26.3324 14.675 26.3179 17.7995C26.3076 19.7686 26.2972 21.8039 26.3179 23.8041C26.233 24.7193 25.5435 25.4088 24.6325 25.4875H4.25402C3.33676 25.4026 2.64726 24.7131 2.56858 23.802V8.62275C2.67625 7.70135 3.4113 7.03463 4.36376 6.99736V6.99943Z" fill="white"/>
<path d="M21.9924 10.799C22.1104 10.799 22.2078 10.8963 22.2078 11.0144V21.7647C22.2078 21.8827 22.1104 21.9801 21.9924 21.9801H6.72823C6.61021 21.9801 6.51289 21.8827 6.51289 21.7647V11.0144C6.51289 10.8963 6.61021 10.799 6.72823 10.799H21.9924ZM21.9924 9.14258H6.72823C5.69709 9.14258 4.85645 9.98323 4.85645 11.0144V21.7647C4.85645 22.7959 5.69709 23.6365 6.72823 23.6365H21.9924C23.0236 23.6365 23.8642 22.7959 23.8642 21.7647V11.0144C23.8642 9.98323 23.0236 9.14258 21.9924 9.14258Z" fill="white"/>
</svg>
