<svg width="31" height="32" viewBox="0 0 31 32" fill="none" xmlns="http://www.w3.org/2000/svg">
<path d="M16.4473 0.973633L18.5841 1.28836C29.3987 3.5432 34.3432 16.5173 27.4565 25.369C19.5118 35.5789 3.36759 31.7049 0.706917 19.2318L0.381839 17.0453C0.408756 16.42 0.344569 15.7781 0.381839 15.1549C0.822869 7.62221 7.09046 1.39396 14.6149 0.975704H16.4453L16.4473 0.973633ZM28.1998 9.89568L25.5226 11.5604C24.8745 11.8669 24.2223 12.1712 23.5494 12.4218C22.7211 12.7303 20.9384 13.3846 20.1226 13.484C19.1411 13.6061 18.8223 12.8959 18.1535 12.4114C17.553 11.9766 16.789 11.8503 16.5902 11.0221C16.3542 10.0386 16.466 7.40273 16.5653 6.32189C16.6937 4.91805 17.0271 3.50179 17.5075 2.18491C17.466 2.12279 17.4288 2.11244 17.3604 2.09795C16.3914 1.91367 14.6128 1.91367 13.6417 2.09795C13.5734 2.11037 13.534 2.12072 13.4947 2.18491C13.7328 2.78537 13.9109 3.41482 14.0538 4.04635C14.4927 5.98232 14.6232 8.35725 14.4989 10.3429C14.4037 11.8627 13.8902 11.6722 12.8818 12.3886C12.3103 12.7945 11.977 13.4218 11.2109 13.4964C10.627 13.5523 8.14023 12.6764 7.45281 12.4238C6.76538 12.1712 6.04276 11.842 5.36154 11.5045L2.8044 9.89982C2.28054 11.1111 1.79396 12.3597 1.62211 13.6807C3.6409 13.6268 5.59551 13.9664 7.51492 14.5524C8.23134 14.7698 9.56685 15.157 10.1901 15.48C10.9976 15.9003 10.9065 16.536 11.1156 17.2731C11.3724 18.1821 12.0267 18.7722 11.5567 19.7495C11.2502 20.3851 10.3392 21.5467 9.88157 22.1493C8.68686 23.7188 7.30787 25.0895 5.70111 26.2366C6.65564 27.1642 7.74269 27.9924 8.94775 28.5701C9.40121 26.8246 10.2543 25.1371 11.2626 23.6483C11.7513 22.9257 12.6727 21.5571 13.2566 20.9753C14.0061 20.2299 14.7225 20.6709 15.5943 20.6564C16.466 20.6419 17.0436 20.2506 17.7787 21.0063C18.4578 21.7062 19.5076 23.2549 20.0522 24.108C20.9177 25.4663 21.6527 27.0089 22.0585 28.5701C23.2657 27.9945 24.3465 27.158 25.3052 26.2366C23.6984 25.0853 22.3194 23.7208 21.1247 22.1493C20.6671 21.5467 19.754 20.3831 19.4496 19.7495C18.9755 18.766 19.6381 18.1862 19.8907 17.2731C20.0998 16.5132 19.9859 15.9127 20.8162 15.48C21.4871 15.1321 22.9013 14.7201 23.6674 14.4923C25.5267 13.9416 27.4337 13.633 29.3821 13.6807C29.2082 12.3617 28.732 11.109 28.1998 9.89982V9.89568ZM12.9626 3.75026C13.004 3.69435 12.6044 2.54105 12.5381 2.43338C12.5008 2.3754 12.4884 2.32778 12.4014 2.33192C8.62889 3.16429 5.30563 5.62411 3.34274 8.93287L3.35931 9.01155C3.39036 9.06953 4.31798 9.73625 4.42565 9.78387C4.48155 9.80872 4.4919 9.85634 4.5768 9.81286C4.63891 9.77973 5.22695 8.81278 5.35533 8.63678C7.19399 6.13761 9.92092 4.39213 12.9626 3.75026ZM18.0417 3.75026C21.0833 4.39213 23.8123 6.13761 25.6489 8.63678C25.7773 8.81071 26.3653 9.77973 26.4274 9.81286C26.5972 9.90189 27.442 9.12543 27.6429 9.01155L27.6594 8.93287C25.9926 6.13968 23.3671 3.92832 20.2986 2.82264C20.017 2.72119 18.8098 2.31122 18.6007 2.33399C18.4951 2.34642 18.4848 2.39197 18.4392 2.47065C18.2508 2.79366 18.1845 3.39205 18.0396 3.75233L18.0417 3.75026ZM13.1986 4.75448C10.3185 5.31353 7.66608 7.05073 6.00549 9.46293C5.91024 9.60166 5.40502 10.3388 5.46507 10.4237C7.24575 11.3099 9.1341 11.9497 11.0494 12.4901C11.3703 12.5067 11.9294 11.8441 12.2379 11.6184C12.4077 11.4942 12.5919 11.3782 12.77 11.2643C13.3767 10.873 13.4305 11.1215 13.4968 10.2187C13.5589 9.37597 13.4512 8.46907 13.4988 7.61807L13.2007 4.75448H13.1986ZM25.5392 10.4237C25.6075 10.3264 25.0961 9.60166 24.9987 9.46293C23.3319 7.05694 20.692 5.30318 17.8056 4.75448C17.5923 6.51239 17.3915 8.38624 17.5116 10.1607C17.5219 10.3222 17.553 10.6535 17.5861 10.7964C17.6462 11.0655 18.0313 11.1318 18.2384 11.2643C18.4164 11.3782 18.6007 11.4942 18.7705 11.6184C19.079 11.8441 19.6381 12.5067 19.959 12.4901C21.8743 11.9497 23.7605 11.3099 25.5433 10.4237H25.5392ZM2.98039 14.6808H1.44404C1.12517 18.0868 2.03622 21.5385 4.01982 24.3047C4.15647 24.4952 4.84183 25.4352 5.01576 25.4352L6.15664 24.578C3.75478 21.8863 2.56628 18.2939 2.97832 14.6808H2.98039ZM29.5581 14.6808H28.0218C28.4338 18.2918 27.2432 21.8863 24.8435 24.578L25.9843 25.4352C26.2639 25.4352 27.4834 23.5572 27.676 23.228C29.1813 20.6626 29.8294 17.652 29.556 14.6808H29.5581ZM9.87329 16.4718C7.98701 15.6974 6.00963 15.1031 3.98669 14.7988C3.60777 18.093 4.66376 21.5157 6.9683 23.8968C8.41562 22.5199 9.56685 20.8759 10.6912 19.2318C10.7988 18.8716 10.4862 18.5341 10.3619 18.1966C10.1487 17.6147 10.0721 17.0371 9.87329 16.4697V16.4718ZM27.0175 14.7988C24.9925 15.1073 23.0193 15.7098 21.1289 16.4697C20.9529 16.8217 20.9446 17.2317 20.8328 17.6209C20.7023 18.0723 20.5077 18.5009 20.2986 18.9192C20.2675 19.0269 20.282 19.1262 20.3131 19.2318C20.3773 19.4472 21.1123 20.4038 21.3007 20.6667C22.1227 21.8159 23.0151 22.9195 24.0359 23.8968C26.3115 21.5033 27.3923 18.0889 27.0175 14.7988ZM20.2861 26.6734C19.7457 25.5201 19.0624 24.4434 18.3253 23.4061C18.052 23.021 17.3294 21.9443 17.0312 21.6875C16.6834 21.3873 16.232 21.6275 15.8262 21.6503C15.6564 21.6606 15.4638 21.6606 15.292 21.6544C14.8281 21.6378 14.3022 21.3707 13.944 21.7165C13.5154 22.1306 12.7514 23.2819 12.3828 23.8181C11.7596 24.7271 11.1902 25.6754 10.7181 26.6714C13.7515 28.0214 17.2528 28.0172 20.2861 26.6714V26.6734ZM20.6982 27.5596C17.466 29.0794 13.5361 29.0794 10.306 27.5596L9.83395 29.0318C13.4305 30.6013 17.5758 30.6034 21.1703 29.0318L20.6982 27.5596Z" fill="white"/>
<path d="M15.6045 31.4213C14.4492 31.4213 13.2793 31.2908 12.1115 31.0237C6.20833 29.6696 1.76077 25.1682 0.503935 19.2754L0.174715 17.0557V17.035C0.187139 16.7451 0.180927 16.4428 0.174715 16.1509C0.166433 15.8196 0.158151 15.4779 0.176786 15.1404C0.624028 7.50421 6.96202 1.19107 14.6065 0.766602H16.4638L18.6151 1.08133C23.8247 2.16837 28.0321 5.81877 29.879 10.8523C31.7135 15.8444 30.8687 21.319 27.6179 25.4953C24.655 29.3031 20.253 31.4192 15.6045 31.4192V31.4213ZM0.590899 17.0329L0.911836 19.2008C2.1314 24.9218 6.46094 29.301 12.2047 30.6179C17.9132 31.9286 23.6942 29.8663 27.2929 25.2406C30.4525 21.1782 31.2745 15.8527 29.4918 10.9952C27.6925 6.09623 23.599 2.54314 18.5427 1.48923L16.4328 1.18071H14.6169C7.19185 1.59483 1.02365 7.73611 0.590899 15.1653C0.572264 15.4842 0.580546 15.8175 0.590899 16.1405C0.599181 16.4325 0.605392 16.7348 0.592969 17.0329H0.590899ZM15.5052 30.4212C13.5443 30.4212 11.5814 30.0216 9.75106 29.2223L9.57921 29.1478L10.1797 27.2719L10.3929 27.3713C13.592 28.8745 17.4101 28.8745 20.6091 27.3713L20.8224 27.2719L21.4228 29.1478L21.251 29.2223C19.4247 30.0216 17.4639 30.4212 15.5031 30.4212H15.5052ZM10.0886 28.918C13.5423 30.3715 17.468 30.3715 20.9155 28.918L20.5718 27.8475C17.379 29.272 13.623 29.272 10.4302 27.8475L10.0865 28.918H10.0886ZM9.08227 28.86L8.85658 28.7502C7.73019 28.2098 6.62037 27.4127 5.55403 26.3774L5.37597 26.2055L5.57888 26.0606C7.11938 24.959 8.51287 23.5987 9.71586 22.0168L9.87944 21.8035C10.3391 21.203 11.1073 20.1988 11.3702 19.6522C11.6601 19.0497 11.4655 18.6273 11.2191 18.091C11.1094 17.8529 10.9955 17.6065 10.9168 17.3228C10.8671 17.1468 10.834 16.9791 10.8029 16.8176C10.7035 16.3062 10.6311 15.9355 10.0968 15.6581C9.56057 15.3786 8.45075 15.0452 7.71777 14.8236L7.45688 14.745C5.39046 14.1155 3.48554 13.8339 1.63032 13.8836L1.38806 13.8898L1.41912 13.6496C1.5827 12.3825 2.01544 11.2002 2.61591 9.81289L2.71115 9.59134L5.465 11.3182C6.25596 11.7095 6.91025 11.9973 7.52728 12.2251C8.78825 12.691 10.7574 13.3266 11.1942 13.2852C11.6456 13.2417 11.9252 12.9746 12.2482 12.664C12.4076 12.5108 12.5712 12.3535 12.7637 12.2168C13.0205 12.0346 13.242 11.9104 13.4367 11.8027C13.9978 11.49 14.2276 11.3617 14.2939 10.3285C14.4264 8.22269 14.2607 5.89124 13.8528 4.09192C13.6955 3.39414 13.5153 2.79368 13.3021 2.26155L13.2627 2.16216L13.3207 2.07313C13.4056 1.94268 13.5071 1.91369 13.6023 1.89506C14.5962 1.70664 16.4038 1.70664 17.3976 1.89506C17.495 1.91369 17.5964 1.94268 17.6813 2.07313L17.7372 2.16009L17.702 2.25741C17.2154 3.58878 16.8945 5.0009 16.7703 6.34262C16.6688 7.45245 16.5653 10.0365 16.791 10.9765C16.9111 11.4818 17.2858 11.6826 17.7186 11.9145C17.9029 12.0139 18.0934 12.1154 18.2735 12.2479C18.4702 12.3907 18.6338 12.546 18.7911 12.6972C19.1783 13.0678 19.4827 13.3598 20.0956 13.2831C20.9197 13.1796 22.8432 12.4653 23.4747 12.2313C24.1353 11.9849 24.773 11.6888 25.4211 11.3824L28.2909 9.59755L28.3861 9.81703C28.8748 10.9268 29.3986 12.252 29.5829 13.6538L29.614 13.894L29.3717 13.8878C27.5455 13.8443 25.6965 14.1072 23.7211 14.6911L23.628 14.718C22.8453 14.95 21.5326 15.3371 20.9072 15.6622C20.3585 15.948 20.2964 16.2875 20.1991 16.8052C20.1681 16.9708 20.137 17.1406 20.0852 17.327C20.0045 17.6168 19.8906 17.8653 19.7788 18.1076C19.5345 18.6376 19.3419 19.0559 19.6318 19.6584C19.8947 20.205 20.6629 21.2093 21.1226 21.8097L21.2862 22.023C22.5016 23.6215 23.8537 24.9445 25.4231 26.0668L25.6261 26.2117L25.4459 26.3836C24.3382 27.4479 23.2573 28.2243 22.1454 28.7544L21.9198 28.8621L21.8556 28.6198C21.4829 27.1849 20.7975 25.663 19.874 24.2178C19.3543 23.402 18.2942 21.8387 17.6254 21.1492C17.1575 20.6668 16.7744 20.7227 16.2443 20.7993C16.0414 20.8283 15.8302 20.8593 15.5942 20.8635C15.3292 20.8655 15.0848 20.8345 14.8467 20.8014C14.2959 20.7247 13.8591 20.6626 13.3973 21.1223C12.8403 21.6772 11.9417 23.0044 11.4593 23.7167L11.4282 23.7623C10.3267 25.3918 9.55643 27.0255 9.14232 28.6198L9.07813 28.8641L9.08227 28.86ZM16.7516 20.3313C17.1285 20.3313 17.5177 20.4369 17.9256 20.8573C18.7766 21.7352 20.079 23.7643 20.226 23.9921C21.1205 25.3918 21.7976 26.866 22.1931 28.2678C23.1269 27.7916 24.0441 27.129 24.9821 26.2531C23.4644 25.1371 22.1475 23.8327 20.959 22.2694L20.7954 22.0561C20.2964 21.4039 19.5427 20.4183 19.2612 19.8323C18.8864 19.0538 19.1514 18.4823 19.4061 17.9295C19.5096 17.7038 19.6194 17.4698 19.6898 17.2131C19.7353 17.0454 19.7664 16.8839 19.7954 16.7265C19.8968 16.184 19.9921 15.6705 20.7188 15.2916C21.3814 14.9479 22.7169 14.5524 23.5141 14.3164L23.6073 14.2894C25.508 13.7262 27.3736 13.4529 29.1398 13.4654C28.9493 12.2913 28.5228 11.1691 28.1045 10.198L25.6116 11.7468C24.9511 12.0594 24.3009 12.3617 23.6218 12.6144C22.5057 13.0285 20.9321 13.5917 20.1494 13.689C19.3419 13.7904 18.9174 13.3846 18.5075 12.9912C18.3605 12.8504 18.2072 12.7034 18.0333 12.5792C17.8739 12.4632 17.6958 12.368 17.5239 12.2769C17.0477 12.0201 16.5529 11.7551 16.3893 11.0697C16.1325 9.99302 16.2775 7.19777 16.3582 6.30328C16.4783 4.98641 16.7868 3.6012 17.2486 2.28846C16.323 2.12903 14.6831 2.12903 13.7555 2.28846C13.946 2.79575 14.1096 3.35687 14.2545 4.00082C14.6707 5.83741 14.8384 8.21234 14.7038 10.3554C14.6293 11.5584 14.2856 11.8048 13.6354 12.1671C13.4491 12.2706 13.2379 12.3887 12.9998 12.5564C12.8321 12.6765 12.6788 12.8235 12.5318 12.9643C12.184 13.2976 11.8258 13.6434 11.2294 13.6993C10.513 13.7677 7.50865 12.662 7.38027 12.6144C6.74668 12.3804 6.07582 12.0864 5.2683 11.6847L5.24966 11.6743L2.89543 10.198C2.39643 11.3699 2.02787 12.3969 1.85808 13.4633C3.67811 13.4405 5.55196 13.7325 7.57076 14.3474L7.82958 14.4261C8.57913 14.6518 9.70965 14.9934 10.2811 15.2895C10.9934 15.6602 11.099 16.2068 11.2025 16.7368C11.2336 16.8901 11.2626 17.0495 11.3081 17.2089C11.3785 17.4615 11.4862 17.6934 11.5877 17.9171C11.8444 18.4761 12.1094 19.0538 11.7347 19.8303C11.4531 20.4162 10.6994 21.4018 10.2004 22.054L10.0368 22.2673C8.86072 23.814 7.50864 25.1537 6.0137 26.2511C6.9206 27.1041 7.8565 27.7791 8.80482 28.2657C9.24378 26.7025 10.0099 25.1102 11.0824 23.5241L11.1135 23.4786C11.6042 22.7539 12.5173 21.406 13.1012 20.8221C13.7079 20.2175 14.3146 20.3024 14.8985 20.3831C15.12 20.4142 15.3478 20.4452 15.5818 20.4411C15.7909 20.4369 15.9897 20.41 16.1802 20.381C16.3665 20.3541 16.5529 20.3272 16.7454 20.3272L16.7516 20.3313ZM15.4989 27.8951C13.8384 27.8951 12.1798 27.5514 10.6352 26.864L10.4406 26.777L10.5317 26.5844C10.981 25.6382 11.5297 24.6961 12.213 23.7022L12.3662 23.4786C12.7824 22.8678 13.4118 21.9464 13.8011 21.5675C14.1324 21.2465 14.5486 21.3252 14.9171 21.3935C15.0538 21.4184 15.1821 21.4432 15.3022 21.4474C15.4865 21.4536 15.6687 21.4536 15.8157 21.4432C15.9172 21.437 16.0249 21.4142 16.1408 21.3915C16.4535 21.3273 16.8427 21.2486 17.1678 21.5302C17.4121 21.7414 17.8677 22.3833 18.3128 23.0231C18.3853 23.1266 18.4474 23.2177 18.4971 23.286C19.3647 24.5077 19.9941 25.5554 20.4766 26.5865L20.5656 26.777L20.373 26.8619C18.8243 27.5493 17.1616 27.893 15.501 27.893L15.4989 27.8951ZM10.9975 26.5699C13.8673 27.7854 17.1264 27.7854 20.0066 26.5699C19.5469 25.6237 18.9568 24.6505 18.1575 23.5283C18.1078 23.46 18.0457 23.3668 17.9712 23.2633C17.673 22.8367 17.1202 22.0416 16.8966 21.847C16.733 21.7062 16.5342 21.7372 16.2216 21.8014C16.0973 21.8263 15.969 21.8532 15.8385 21.8615C15.6791 21.8718 15.4824 21.8718 15.2857 21.8656C15.1345 21.8594 14.9854 21.8325 14.8405 21.8056C14.4844 21.7393 14.2545 21.7103 14.0889 21.8698C13.7286 22.2176 13.0909 23.1556 12.7078 23.7146L12.5546 23.9383C11.9314 24.8452 11.422 25.7086 10.9996 26.5699H10.9975ZM5.01362 25.6423C4.91009 25.6423 4.71132 25.6216 3.8541 24.4269C1.84152 21.6213 0.913906 18.1531 1.24105 14.6621L1.25762 14.4737H3.2143L3.18738 14.7036C2.78776 18.2152 3.92657 21.7642 6.31393 24.4393L6.46508 24.607L5.08816 25.6403H5.01983C5.01983 25.6403 5.01569 25.6403 5.01362 25.6403V25.6423ZM1.63446 14.8878C1.36736 18.2152 2.27012 21.5095 4.18746 24.1847C4.52082 24.6485 4.84383 25.046 5.00119 25.1868L5.85427 24.5449C3.54145 21.8615 2.41713 18.3664 2.74842 14.8858H1.63239L1.63446 14.8878ZM25.9863 25.6423H25.918L24.5411 24.6091L24.6902 24.4414C27.0775 21.7642 28.2184 18.2152 27.8167 14.7056L27.7898 14.4758H29.7465L29.763 14.6642C30.0426 17.6872 29.3634 20.7682 27.8561 23.3357C27.8416 23.3585 26.4708 25.6444 25.9843 25.6444L25.9863 25.6423ZM25.1478 24.547L26.007 25.1909C26.3259 24.9176 27.208 23.6215 27.4999 23.1225C28.9327 20.6813 29.5933 17.7638 29.3676 14.8858H28.2515C28.5828 18.3643 27.4606 21.8594 25.1457 24.5449L25.1478 24.547ZM24.0421 24.1888L23.893 24.0459C22.9695 23.1639 22.0916 22.1286 21.1329 20.7869C21.0936 20.731 21.0294 20.6461 20.9528 20.5425C20.4497 19.8634 20.166 19.4638 20.1142 19.2919C20.0811 19.1822 20.05 19.0331 20.0997 18.8612L20.1142 18.826C20.2985 18.4575 20.5035 18.0206 20.636 17.563C20.6753 17.4263 20.7023 17.2855 20.7292 17.1385C20.7768 16.8859 20.8244 16.623 20.9466 16.3786L20.9818 16.3082L21.0543 16.2792C23.1538 15.4365 25.096 14.8858 26.9906 14.5959L27.2038 14.5628L27.2287 14.776C27.6159 18.1697 26.4791 21.6317 24.1912 24.0397L24.0483 24.1909L24.0421 24.1888ZM20.4931 18.9917C20.4828 19.0414 20.4869 19.0952 20.5118 19.1718C20.5573 19.3147 21.0688 20.0021 21.2862 20.2961C21.3648 20.4017 21.429 20.4908 21.4704 20.5467C22.3629 21.7932 23.1807 22.7684 24.0297 23.6008C26.0919 21.3397 27.1314 18.1697 26.8353 15.0369C25.0649 15.3247 23.2449 15.8486 21.282 16.6312C21.2075 16.8072 21.1723 17.006 21.1329 17.2131C21.104 17.3642 21.077 17.5216 21.0315 17.679C20.8928 18.1614 20.6816 18.6128 20.4931 18.9938V18.9917ZM6.96202 24.1888L6.81915 24.0418C4.5229 21.671 3.38616 18.2069 3.77956 14.776L3.80441 14.5628L4.01561 14.5938C5.93295 14.8816 7.93104 15.449 9.95191 16.2792L10.0368 16.3145L10.0679 16.4014C10.1672 16.683 10.2376 16.9687 10.3039 17.2441C10.3743 17.534 10.4488 17.8342 10.5565 18.1262C10.5896 18.2152 10.6393 18.3084 10.6932 18.4078C10.8319 18.6666 10.9893 18.9606 10.8899 19.294L10.863 19.352C9.64961 21.1244 8.5315 22.7001 7.1111 24.0501L6.96202 24.1909V24.1888ZM4.16883 15.0369C3.86653 18.2028 4.90595 21.3749 6.97444 23.6028C8.28718 22.3211 9.35145 20.8221 10.5006 19.147C10.5337 18.9834 10.4343 18.7991 10.3287 18.6045C10.2708 18.4968 10.2107 18.3871 10.1693 18.2711C10.0534 17.9585 9.97675 17.6458 9.90428 17.3456C9.84424 17.0992 9.78626 16.8631 9.70965 16.6292C7.82544 15.861 5.96401 15.3268 4.1709 15.039L4.16883 15.0369ZM19.9444 12.6992C19.6401 12.6992 19.2984 12.3804 18.9671 12.0698C18.845 11.9559 18.7311 11.8482 18.6462 11.7861C18.5137 11.6888 18.3667 11.5936 18.2238 11.5025L18.1244 11.4383C18.0768 11.4072 18.0085 11.3782 17.936 11.3472C17.7289 11.2581 17.4473 11.1339 17.3811 10.842C17.3417 10.6639 17.3107 10.2912 17.3024 10.1752C17.1823 8.39662 17.3832 6.51034 17.5985 4.73173L17.6254 4.51225L17.8428 4.55366C20.7747 5.11064 23.4458 6.85819 25.1685 9.34701L25.1892 9.376C25.7938 10.2436 25.8103 10.3989 25.7089 10.5459L25.6778 10.5893L25.6302 10.6121C24.0628 11.3927 22.2759 12.0553 20.0107 12.693L19.9651 12.7013C19.9651 12.7013 19.9506 12.7013 19.9424 12.7013L19.9444 12.6992ZM17.9836 5.0009C17.7807 6.69462 17.6047 8.4753 17.7165 10.1462C17.7289 10.3222 17.76 10.6287 17.7869 10.7508C17.8055 10.8378 17.9629 10.9061 18.1016 10.9683C18.1865 11.0055 18.2735 11.0428 18.348 11.0925L18.4454 11.1546C18.5924 11.2499 18.7456 11.3472 18.8905 11.4528C18.994 11.5294 19.1183 11.6453 19.2487 11.7675C19.4247 11.9311 19.7809 12.2644 19.9279 12.2851C22.0813 11.6764 23.7936 11.049 25.2968 10.314C25.243 10.2084 25.1208 10.0013 24.8496 9.61204L24.8289 9.58305C23.2097 7.24332 20.725 5.5848 17.9836 5.00504V5.0009ZM11.0597 12.6992C11.0597 12.6992 11.0452 12.6992 11.0369 12.6992L10.9913 12.691C8.71578 12.047 6.93096 11.3865 5.37182 10.6101L5.3242 10.5873L5.29314 10.5438C5.21239 10.4278 5.1482 10.3388 5.83149 9.34701C7.53763 6.87269 10.2066 5.12513 13.1571 4.55366L13.3787 4.51018L13.7017 7.61395V7.63051C13.6768 8.0322 13.6913 8.45667 13.7017 8.86664C13.7141 9.31802 13.7286 9.78597 13.6976 10.2332C13.6458 10.9476 13.592 11.0614 13.2089 11.2519C13.1219 11.2954 13.0143 11.3492 12.8776 11.4383L12.7762 11.5025C12.6333 11.5936 12.4883 11.6867 12.3558 11.7841C12.2709 11.8462 12.1571 11.9538 12.0349 12.0677C11.7036 12.3762 11.362 12.6972 11.0576 12.6972L11.0597 12.6992ZM5.7114 10.314C7.20427 11.0428 8.91456 11.6702 11.0742 12.2831C11.2212 12.2644 11.5773 11.9311 11.7533 11.7654C11.8837 11.6433 12.008 11.5273 12.1115 11.4507C12.2544 11.3451 12.4076 11.2478 12.5546 11.1546L12.654 11.0904C12.8093 10.989 12.9335 10.9268 13.0246 10.8834C13.1709 10.8102 13.2579 10.5838 13.2855 10.2042C13.3166 9.77769 13.3021 9.32009 13.2897 8.87906C13.2772 8.46495 13.2648 8.03634 13.2876 7.62223L13.0143 5.00297C10.2584 5.59722 7.77575 7.25574 6.17313 9.57891C5.93502 9.9247 5.7818 10.1752 5.70933 10.314H5.7114ZM4.51875 10.0365C4.42972 10.0365 4.36967 9.99302 4.34483 9.97439C4.3324 9.96611 3.25985 9.26005 3.1791 9.10682L3.15839 9.05299L3.1232 8.89563L3.16461 8.82523C5.18962 5.41087 8.53979 2.96968 12.3579 2.12696L12.3931 2.12282C12.5939 2.11454 12.6685 2.24705 12.7016 2.30503L12.712 2.32366C12.7182 2.33609 13.2897 3.65296 13.1281 3.87244L13.0805 3.93663L13.0039 3.9532C9.98918 4.58886 7.33265 6.295 5.51883 8.75897C5.47121 8.82316 5.34284 9.024 5.2186 9.22071C4.77136 9.9247 4.7403 9.95782 4.6699 9.99509C4.61193 10.0262 4.56016 10.0365 4.51461 10.0365H4.51875ZM3.58286 8.93083C3.78577 9.09233 4.34483 9.49402 4.49184 9.58305C4.58294 9.45054 4.75066 9.1855 4.87075 8.99708C5.00948 8.77761 5.13164 8.58711 5.18547 8.51257C7.01792 6.01962 9.68895 4.27827 12.7223 3.59085C12.6374 3.29269 12.4283 2.68394 12.3641 2.55143C8.73028 3.37758 5.53954 5.69661 3.58286 8.9329V8.93083ZM26.4605 10.0262C26.4149 10.0262 26.3735 10.0158 26.3321 9.99509C26.2596 9.95782 26.2286 9.9247 25.7793 9.21657C25.6571 9.02193 25.5287 8.82316 25.4832 8.75897C23.6714 6.295 21.0128 4.58886 17.9981 3.9532L17.7559 3.90143L17.849 3.6716C17.9049 3.53287 17.9505 3.35066 17.996 3.15603C18.0664 2.87029 18.1368 2.57627 18.2611 2.36301L18.2756 2.33609C18.3149 2.26569 18.3791 2.1456 18.5779 2.12489C18.8781 2.08969 20.3544 2.61975 20.3689 2.62597C23.4665 3.742 26.1189 5.94508 27.8374 8.82523L27.8788 8.89563L27.825 9.14409L27.7442 9.18965C27.6945 9.21656 27.562 9.32423 27.4337 9.42569C26.9326 9.82531 26.6593 10.0241 26.4605 10.0241V10.0262ZM18.3108 3.59706C21.3317 4.2907 23.9903 6.02997 25.8165 8.51257C25.8704 8.58711 25.9905 8.77553 26.1292 8.99294C26.2514 9.18551 26.4212 9.45468 26.5143 9.58719C26.6779 9.5023 27.0071 9.23934 27.1769 9.10475C27.2742 9.02607 27.3508 8.96603 27.413 8.92047C25.742 6.17905 23.1952 4.08571 20.2322 3.0173C19.7146 2.83095 18.8408 2.5535 18.6421 2.539L18.6234 2.57213C18.5302 2.73156 18.4661 2.99867 18.4019 3.25542C18.3729 3.37137 18.346 3.48732 18.3128 3.59913L18.3108 3.59706Z" fill="white"/>
<path d="M15.3726 13.5749C18.4164 13.4072 19.0375 17.9044 16.0476 18.5649C12.5422 19.3393 11.7823 13.7716 15.3726 13.5749ZM15.4886 14.5791C13.476 14.6205 13.5754 17.6042 15.472 17.6228C17.5012 17.6435 17.4763 14.5398 15.4886 14.5791Z" fill="white"/>
<path d="M15.3953 18.8467C14.6251 18.8467 13.9584 18.5382 13.4738 17.946C12.7926 17.1157 12.6208 15.8485 13.0535 14.8671C13.4531 13.9602 14.271 13.428 15.3601 13.368C17.0601 13.2769 18.0125 14.5275 18.1761 15.7305C18.3417 16.9356 17.7599 18.3994 16.091 18.768C15.8508 18.8218 15.6189 18.8467 15.3953 18.8467ZM15.3829 13.7821C14.4574 13.8339 13.7658 14.277 13.4324 15.0348C13.0597 15.8816 13.2088 16.9708 13.7948 17.6851C14.3166 18.3228 15.1013 18.563 16.002 18.3642C17.4224 18.0516 17.9111 16.8444 17.7661 15.7885C17.6212 14.7345 16.8282 13.7013 15.3829 13.7842V13.7821ZM15.4926 17.83C15.4926 17.83 15.4781 17.83 15.4699 17.83C14.3828 17.8197 13.8113 16.948 13.8072 16.0949C13.8031 15.2812 14.3269 14.395 15.4844 14.3722C16.1221 14.3618 16.6397 14.6352 16.942 15.1487C17.2733 15.7077 17.2775 16.4635 16.9503 17.0267C16.6522 17.5443 16.1345 17.83 15.4906 17.83H15.4926ZM15.5258 14.7863C15.5154 14.7863 15.503 14.7863 15.4926 14.7863C14.6085 14.8049 14.2172 15.4551 14.2213 16.0928C14.2255 16.7244 14.6189 17.4076 15.474 17.4159C15.973 17.4242 16.3685 17.2089 16.5921 16.8196C16.8447 16.3806 16.8426 15.7947 16.5859 15.3599C16.3664 14.9892 15.9916 14.7863 15.5258 14.7863Z" fill="white"/>
<path d="M10.9955 14.2211C11.3827 14.1341 12.2192 14.3847 12.1985 14.8857C12.1633 15.685 10.8133 15.2626 10.6849 14.8609C10.6 14.5959 10.7077 14.2853 10.9955 14.2211Z" fill="white"/>
<path d="M11.6663 15.5461C11.2046 15.5461 10.6 15.2769 10.4882 14.9249C10.424 14.722 10.4447 14.4943 10.5441 14.3203C10.6331 14.165 10.776 14.0594 10.9499 14.0201C11.2584 13.9497 11.7947 14.047 12.128 14.3245C12.3185 14.4839 12.4159 14.6827 12.4055 14.898C12.391 15.2521 12.1653 15.4923 11.803 15.5399C11.7595 15.5461 11.7139 15.5482 11.6663 15.5482V15.5461ZM11.041 14.4218C10.9789 14.4363 10.9333 14.4694 10.9023 14.5253C10.8588 14.5999 10.8526 14.7034 10.8816 14.7986C10.923 14.9291 11.3909 15.1734 11.7471 15.1278C11.952 15.1009 11.9852 14.9912 11.9893 14.8794C11.9893 14.8483 11.9955 14.7551 11.8609 14.6413C11.6477 14.4632 11.2439 14.3783 11.041 14.4239V14.4218Z" fill="white"/>
<path d="M19.6214 14.2229C20.4103 14.0987 20.607 14.8689 20.0231 15.1567C18.7207 15.8007 18.3356 14.4238 19.6214 14.2229Z" fill="white"/>
<path d="M19.3958 15.5338C19.1121 15.5338 18.9361 15.4261 18.8533 15.3578C18.6566 15.1962 18.5779 14.9436 18.6441 14.6972C18.7394 14.3494 19.0914 14.0947 19.5862 14.0181C20.1142 13.9353 20.4435 14.1941 20.5346 14.486C20.6402 14.8153 20.4662 15.1673 20.1122 15.3433C19.8223 15.4861 19.5842 15.5358 19.3937 15.5358L19.3958 15.5338ZM19.6525 14.426C19.2653 14.486 19.0852 14.662 19.0458 14.8049C19.021 14.8939 19.0458 14.9788 19.1183 15.0368C19.2405 15.1383 19.52 15.1735 19.932 14.9685C20.1267 14.8712 20.1784 14.7179 20.1432 14.6082C20.0956 14.4571 19.903 14.3867 19.6525 14.426Z" fill="white"/>
<path d="M15.3064 11.0885C16.1967 10.8234 16.2485 12.4053 15.6356 12.542C14.7805 12.7304 14.8198 11.2334 15.3064 11.0885Z" fill="white"/>
<path d="M15.4926 12.7657C15.1551 12.7657 14.8963 12.5462 14.7969 12.159C14.6685 11.6621 14.8342 11.014 15.2483 10.8898C15.532 10.8049 15.7908 10.8629 15.9771 11.0492C16.2587 11.3287 16.3022 11.8319 16.2008 12.1839C16.1138 12.4862 15.9233 12.6891 15.681 12.7429C15.6169 12.7574 15.5547 12.7636 15.4947 12.7636L15.4926 12.7657ZM15.3663 11.2873C15.2379 11.3246 15.1096 11.7118 15.1986 12.0555C15.2897 12.4075 15.5092 12.3578 15.592 12.3392C15.7204 12.3102 15.7825 12.1404 15.8032 12.0679C15.8798 11.8029 15.8281 11.484 15.6852 11.3412C15.6355 11.2915 15.5485 11.2314 15.3663 11.2853V11.2873Z" fill="white"/>
<path d="M17.8243 20.1556C17.5282 19.9029 17.1078 19.1368 17.6441 18.9194C18.0644 18.7496 18.346 19.0706 18.5407 19.4102C18.9134 20.0645 18.257 20.5241 17.8243 20.1556Z" fill="white"/>
<path d="M18.1658 20.4951C17.9981 20.4951 17.8304 20.435 17.6875 20.3128C17.4453 20.1058 17.1181 19.6047 17.1864 19.1865C17.2216 18.9753 17.3562 18.8117 17.5654 18.7268C17.8697 18.6026 18.317 18.6046 18.7187 19.3066C18.9858 19.7745 18.8242 20.1534 18.6048 20.3336C18.4764 20.4392 18.3232 20.493 18.1679 20.493L18.1658 20.4951ZM17.9588 20.0002C18.0954 20.1182 18.2486 20.0934 18.3418 20.0188C18.4433 19.936 18.5012 19.76 18.3604 19.5157C18.0913 19.0436 17.8863 19.0477 17.7206 19.114C17.6254 19.1533 17.6047 19.2072 17.5964 19.2548C17.5612 19.466 17.7662 19.8345 17.9588 20.0002Z" fill="white"/>
<path d="M12.9438 18.8879C13.3352 18.7699 13.652 19.0308 13.6126 19.4366C13.5857 19.7141 13.1157 20.2938 12.8113 20.2855C12.567 20.2793 12.2978 19.9812 12.3123 19.7348C12.3227 19.5629 12.7823 18.9335 12.9438 18.8858V18.8879Z" fill="white"/>
<path d="M12.8176 20.4949C12.8176 20.4949 12.8114 20.4949 12.8073 20.4949C12.6375 20.4907 12.4594 20.4017 12.3186 20.2485C12.1737 20.0911 12.0971 19.9006 12.1053 19.7267C12.1178 19.4844 12.623 18.7701 12.8839 18.6914C13.1365 18.6148 13.387 18.6562 13.5692 18.8073C13.7535 18.9585 13.8446 19.1945 13.8177 19.4596C13.7825 19.824 13.2421 20.4969 12.8155 20.4969L12.8176 20.4949ZM13.0143 19.0827C12.8942 19.1552 12.5484 19.6273 12.5195 19.7577C12.5174 19.8095 12.5588 19.8965 12.623 19.9669C12.6851 20.0352 12.7617 20.0787 12.8176 20.0807C12.975 20.0745 13.387 19.6273 13.4077 19.4182C13.4202 19.2919 13.385 19.1883 13.3083 19.1262C13.2338 19.0662 13.1303 19.0517 13.0143 19.0848V19.0827Z" fill="white"/>
</svg>
