<svg width="89" height="102" viewBox="0 0 89 102" fill="none" xmlns="http://www.w3.org/2000/svg">
<path d="M65.8751 30.3822L65.664 32.1239H67.4616H83.6889H85.7239L86.1463 30.1413C87.3123 24.6689 86.8617 19.7668 84.7529 15.5005C82.6647 11.2325 79.2104 7.93681 74.4662 5.59494C69.736 3.21199 63.9211 2.05126 57.0863 2.05126C50.3349 2.05126 43.9498 3.21445 37.9586 5.58502C31.9813 7.92324 26.8477 11.2436 22.6223 15.5642L22.6223 15.5642L22.6149 15.5718C18.3701 19.9461 15.5989 25.0321 14.2786 30.7509C12.6684 37.7256 13.738 43.4851 17.6261 47.8257L17.6303 47.8304L17.6345 47.8351C21.4318 51.9984 27.1134 55.0245 34.5396 56.9976L44.516 59.6547L44.5211 59.656C47.5885 60.463 50.1786 61.376 52.3074 62.3864L52.3194 62.3921L52.3316 62.3977C54.423 63.347 55.8337 64.4916 56.6818 65.7769L56.6864 65.7838L56.691 65.7907C57.4549 66.9189 57.696 68.3882 57.2733 70.3469C56.7407 72.5245 55.6512 74.3675 54.0031 75.9549C52.3102 77.5624 50.1306 78.8842 47.378 79.874C44.6841 80.8266 41.6167 81.3296 38.1471 81.3296C34.8355 81.3296 32.0085 80.8433 29.6333 79.9036C27.3306 78.9807 25.6615 77.6083 24.5633 75.8006C23.5082 74.0638 23.1415 71.8353 23.5778 69.0046L23.8558 67.2012H21.9998H5.40886H3.32889L2.94286 69.2263C1.73739 75.5502 2.16599 81.0323 4.33765 85.581L4.34133 85.5886C6.53354 90.1119 10.2108 93.5219 15.2919 95.8355L15.2953 95.8371C20.3947 98.1444 26.6984 99.2668 34.1423 99.2668C41.7939 99.2668 48.6976 98.1162 54.8072 95.7363L54.8127 95.7341C60.9266 93.3365 66.0507 89.9744 70.0881 85.6103L70.0931 85.6048C74.1373 81.2093 76.7989 76.1436 78.1067 70.4786C79.0699 66.3066 79.127 62.5695 78.1943 59.3249C77.2842 56.1592 75.6726 53.4498 73.3677 51.2108C71.1423 49.02 68.4707 47.2144 65.3655 45.7889C62.3417 44.387 59.1134 43.2755 55.6826 42.4534L47.461 40.3313L47.4507 40.3287L47.4403 40.3261C45.7004 39.8996 43.9965 39.3733 42.3287 38.7466C40.7199 38.1421 39.3153 37.4074 38.1061 36.5482C36.9822 35.7165 36.2005 34.7359 35.7213 33.6127C35.3107 32.5837 35.2402 31.3194 35.6018 29.745C36.0626 27.8674 36.9922 26.2461 38.3977 24.817C39.8071 23.3839 41.6917 22.1781 44.1576 21.2527L43.7951 19.4571L44.1577 21.2527C46.5767 20.3449 49.4268 19.8557 52.7485 19.8557C57.4606 19.8557 60.8467 20.8703 63.1103 22.73L63.1165 22.7351C65.3563 24.5542 66.2789 27.0497 65.8751 30.3822Z" stroke="white" stroke-width="4"/>
</svg>
