<svg width="35" height="31" viewBox="0 0 35 31" fill="none" xmlns="http://www.w3.org/2000/svg">
<path d="M18.7037 8.83813C19.6769 8.89197 20.5382 9.35784 21.3333 9.86306C23.1989 7.37632 25.5635 9.74711 23.0995 11.6292C23.6047 12.4264 24.0706 13.2878 24.1244 14.2589C25.0583 14.1243 26.5491 14.2754 26.4828 15.5219C26.3938 17.228 24.5468 16.3957 24.1907 16.8222C23.8615 17.2198 23.731 18.8493 23.0892 19.311C23.8076 19.9591 24.7083 20.9592 23.8242 21.8785C22.6792 23.065 21.8303 21.2077 21.3354 21.1952C21.0745 21.189 20.2401 21.7212 19.8964 21.8661C19.5837 21.9965 18.8279 22.0069 18.7161 22.3423C18.801 23.2907 18.6499 24.5351 17.4303 24.4999C15.7759 24.4522 16.5358 22.4624 16.1383 22.1684C15.4364 22.2533 14.1153 21.187 13.6453 21.1973C13.0925 21.2097 12.3222 23.1602 11.084 21.8019C9.89968 20.5037 11.7528 19.897 11.7653 19.3152C11.7715 19.0543 11.2393 18.2198 11.0944 17.8761C10.964 17.5655 10.9536 16.8077 10.6182 16.6959C9.6802 16.7622 8.3302 16.6752 8.4565 15.4101C8.62629 13.7247 10.4919 14.526 10.7921 14.1181C10.7072 13.4161 11.7735 12.0951 11.7632 11.6251C11.7508 11.0371 10.3386 10.8072 10.8521 9.51107C11.4112 8.10101 13.0035 8.98928 13.6474 9.87134C13.9745 9.32886 16.0534 8.94166 16.2149 8.6994C16.5089 8.26044 15.9416 7.35147 16.6808 6.75722C17.9997 5.69916 19.1095 7.53161 18.6996 8.83813H18.7037ZM16.3992 11.2897C15.6144 11.4222 14.6081 12.1531 14.1174 12.7722C11.2455 16.4102 15.2521 21.3878 19.4553 19.3152C23.7165 17.2136 21.824 10.3766 16.3992 11.2876V11.2897Z" fill="white"/>
<path d="M6.19829 21.6466C10.8343 30.4093 23.5206 30.7281 28.7012 22.2347C29.0656 21.6384 30.1671 18.9404 30.4032 18.7768C31.1817 18.2385 32.3433 18.5926 32.4116 19.6134C32.5089 21.0545 30.3576 24.3736 29.3948 25.4875C25.997 29.4216 20.657 31.4984 15.4785 30.8109C10.5651 30.1587 5.87735 26.8934 3.78609 22.3962L3.41753 24.0568C2.83156 25.5103 0.874876 25.0299 0.936993 23.5474C0.980475 22.5411 1.57265 18.5864 1.87082 17.6898C2.15241 16.8409 2.92059 16.6007 3.69705 16.9879L8.91073 20.3567C9.26065 20.9219 9.32898 21.3361 8.91073 21.8682C7.82782 23.241 6.47367 21.392 6.19829 21.6404V21.6466Z" fill="white"/>
<path d="M31.3471 8.54188C31.3596 7.56664 31.7012 6.20422 32.9208 6.28704C33.4757 6.32431 34.0575 7.01173 34.0616 7.55836C34.0679 8.23129 33.0346 12.9439 32.7613 13.652C32.5336 14.2421 31.7861 14.5465 31.1918 14.3498C29.6845 13.1779 27.6491 12.1012 26.2391 10.865C24.9905 9.77179 25.7297 8.27892 27.3199 8.57915L28.937 9.52332C24.1126 0.474971 11.0515 0.120904 5.96827 9.14234C5.33053 10.2749 4.92056 12.7782 3.2227 12.0432C1.62216 11.3496 3.64095 8.10499 4.26833 7.14011C9.00371 -0.158621 19.1018 -2.21262 26.2743 2.84783C28.4525 4.38419 29.875 6.36158 31.3451 8.54188H31.3471Z" fill="white"/>
</svg>
