<svg width="19" height="33" viewBox="0 0 19 33" fill="none" xmlns="http://www.w3.org/2000/svg">
<path d="M10.646 5.48135C10.2278 5.48135 9.78466 5.45857 9.35812 5.4358C8.93366 5.41302 8.4947 5.39231 8.08473 5.39231C7.81762 5.39231 7.58365 5.40267 7.37038 5.4213H7.35589H7.3414C6.95213 5.34676 6.67467 5.06516 6.63533 4.70075C6.59599 4.34668 6.7927 4.02988 7.14883 3.87252L7.16954 3.86424L11.7786 3.85596L11.7931 3.8601C12.2341 3.99054 12.4081 4.36532 12.3853 4.68004C12.3625 5.00305 12.1265 5.35711 11.6564 5.42337C11.3686 5.46478 11.0394 5.48342 10.6481 5.48342L10.646 5.48135Z" fill="white"/>
<path d="M6.75977 31.9307C5.84458 31.9307 5.03913 31.9079 4.29994 31.8582C2.49855 31.7402 1.16511 30.4564 0.97876 28.6633V28.6426V4.10231C1.10921 2.53697 2.44472 1.12899 3.96037 0.946777H3.97279H15.0275L15.0462 0.950919C16.6715 1.25322 17.8352 2.45829 18.0133 4.02156V4.03398L18.0174 28.6467C17.9015 30.3218 16.6343 31.6325 14.9364 31.8499H14.9178H14.8991C14.3318 31.8251 13.7293 31.8106 13.0543 31.8106C12.0149 31.8106 10.9444 31.8416 9.90909 31.8706C8.87174 31.8996 7.79712 31.9307 6.75356 31.9307H6.75977ZM6.24213 30.0216C7.23393 30.0216 8.25678 30.0568 9.24651 30.0899C10.2321 30.1231 11.2508 30.1562 12.2343 30.1562C13.1019 30.1562 13.8597 30.1293 14.5492 30.0754C15.5058 30.0009 16.1518 29.3984 16.2367 28.506V4.33836C16.1705 3.43145 15.5783 2.84134 14.6113 2.7316L4.28545 2.74817C3.42616 2.86205 2.84227 3.47907 2.76358 4.36113V28.3465C2.82984 29.3404 3.40546 29.9574 4.38069 30.0713C4.94803 30.0382 5.55884 30.0216 6.24213 30.0216Z" fill="white"/>
<path d="M15.0109 1.15386C16.4892 1.42924 17.6384 2.52457 17.8103 4.04436L17.8144 28.6447C17.7026 30.2411 16.4768 31.442 14.9135 31.6429C14.3027 31.616 13.6836 31.6035 13.0604 31.6035C10.9753 31.6035 8.84266 31.7236 6.75967 31.7236C5.93352 31.7236 5.11772 31.705 4.31227 31.6532C2.62476 31.5435 1.35758 30.3219 1.18365 28.6447V4.10234C1.30582 2.68193 2.56265 1.32364 3.98719 1.15386H15.0109ZM4.37646 30.2784C4.98935 30.2432 5.61465 30.2287 6.2441 30.2287C8.22149 30.2287 10.261 30.3633 12.2363 30.3633C13.0273 30.3633 13.8058 30.3426 14.5678 30.2825C15.5865 30.2018 16.3464 29.562 16.4458 28.5246V4.33838C16.3692 3.28032 15.6589 2.63638 14.6257 2.52457L4.275 2.54113C3.30598 2.6633 2.64754 3.3735 2.56058 4.34252L2.55644 28.3465C2.63305 29.446 3.27699 30.1562 4.37853 30.2784M15.0502 0.739746H3.93957C2.33281 0.934379 0.912408 2.42725 0.775751 4.06921V4.08577V4.10234V28.6426L0.773682 28.6633V28.684C0.968314 30.5517 2.41357 31.941 4.28949 32.0632C5.03283 32.1108 5.84242 32.1357 6.76382 32.1357C7.81152 32.1357 8.88614 32.1046 9.92556 32.0756C10.9588 32.0466 12.0272 32.0156 13.0645 32.0156C13.7354 32.0156 14.3359 32.028 14.8991 32.0529H14.9342L14.9695 32.0508C16.7667 31.8209 18.1064 30.4316 18.2306 28.6716V28.6571V28.6426L18.2264 4.04229V4.01952L18.2244 3.99674C18.036 2.34236 16.804 1.06689 15.0895 0.745958L15.0523 0.739746H15.0502ZM4.29985 2.95525L14.6009 2.93868C15.4602 3.03807 15.9654 3.54122 16.0316 4.35288V28.5018C15.9488 29.2886 15.3898 29.8001 14.5367 29.8663C13.8513 29.9202 13.0997 29.9471 12.2384 29.9471C11.2569 29.9471 10.2403 29.914 9.25677 29.8808C8.26497 29.8477 7.24212 29.8125 6.24618 29.8125C5.56496 29.8125 4.95829 29.8291 4.39095 29.8601C3.5296 29.7525 3.03887 29.2245 2.97262 28.3279L2.97676 4.35702C3.0513 3.59091 3.55859 3.05463 4.30399 2.95111L4.29985 2.95525Z" fill="white"/>
<path d="M11.7601 3.95754C12.5138 4.17909 12.4289 5.20609 11.64 5.3179C11.3294 5.36139 10.994 5.37795 10.6461 5.37795C9.81583 5.37795 8.91307 5.28892 8.08484 5.28892C7.83638 5.28892 7.59205 5.2972 7.36015 5.3179C6.62924 5.17711 6.49051 4.27227 7.18829 3.96583L11.7601 3.95754ZM11.7891 3.75049H11.7601L7.18829 3.75877H7.14481L7.10547 3.77533C6.71206 3.94926 6.48637 4.31575 6.53192 4.71123C6.57748 5.11913 6.88806 5.43799 7.32288 5.52082L7.35187 5.52703H7.38085C7.58998 5.50632 7.82188 5.49597 8.08692 5.49597C8.49482 5.49597 8.9317 5.51875 9.35617 5.53945C9.78478 5.56223 10.2299 5.58501 10.6503 5.58501C11.0457 5.58501 11.3791 5.5643 11.6731 5.52289C12.2011 5.44835 12.4641 5.04666 12.491 4.68431C12.5221 4.2557 12.2529 3.88507 11.8243 3.75877L11.7953 3.75049H11.7891Z" fill="white"/>
<path d="M9.53841 28.974C8.85512 28.974 8.08694 28.4999 8.01033 27.6199C7.94615 26.8993 8.51348 26.1374 9.20091 26.0214C9.29615 26.0049 9.3914 25.9966 9.48457 25.9966C10.0581 25.9966 10.5758 26.3072 10.8367 26.8082C11.0955 27.3052 11.0499 27.8891 10.7145 28.3694C10.4453 28.7546 10.0167 28.974 9.53841 28.974Z" fill="white"/>
<path d="M9.48243 26.1021C10.5985 26.1021 11.3169 27.3237 10.6274 28.3114C10.3583 28.6965 9.9483 28.8725 9.53626 28.8725C8.86126 28.8725 8.18004 28.3983 8.10965 27.6136C8.05167 26.9676 8.56724 26.2367 9.21325 26.1269C9.30436 26.1124 9.39339 26.1041 9.48036 26.1041M9.48243 25.895C9.38304 25.895 9.28158 25.9033 9.18013 25.9199C8.44508 26.0441 7.83633 26.8599 7.90466 27.6302C7.98748 28.5702 8.80742 29.0795 9.53626 29.0795C10.0477 29.0795 10.5074 28.8435 10.7972 28.4294C11.1554 27.918 11.2031 27.2926 10.9277 26.7626C10.6482 26.2284 10.0953 25.895 9.48243 25.895Z" fill="white"/>
</svg>
