<svg width="35" height="21" viewBox="0 0 35 21" fill="none" xmlns="http://www.w3.org/2000/svg">
<path d="M15.176 4.67224C14.882 4.67224 14.5549 4.49624 14.5549 4.24156V2.93296C14.3085 3.12967 14.0642 3.40712 13.826 3.6763C13.5527 3.98688 13.2691 4.30989 12.9833 4.50038C12.8487 4.58941 12.7059 4.63704 12.5671 4.63704C12.3518 4.63704 12.1634 4.5273 12.0661 4.34302C11.9542 4.13596 11.9791 3.88335 12.1344 3.65145C12.3249 3.36571 12.6458 3.08204 12.9585 2.80873C13.2276 2.57062 13.5051 2.32629 13.7018 2.07989H12.3932C12.1634 2.07989 11.9977 1.80865 11.9687 1.54569C11.9398 1.2848 12.035 0.980425 12.3911 0.899673H12.4015H12.4118C12.5299 0.905884 12.652 0.910026 12.7763 0.910026C13.0599 0.910026 13.3602 0.895532 13.6521 0.881039C13.9482 0.866545 14.2526 0.852051 14.5445 0.852051C14.7951 0.852051 15.0083 0.862403 15.2009 0.885179C15.5363 0.92452 15.7185 1.10673 15.7558 1.44009C15.8117 1.91839 15.7848 2.46295 15.7599 2.98887C15.7392 3.40712 15.7185 3.83987 15.7413 4.22914V4.23949V4.24984C15.6813 4.51694 15.4721 4.67638 15.1823 4.67638L15.176 4.67224Z" fill="white"/>
<path d="M14.5403 0.924335C14.7639 0.924335 14.9814 0.932618 15.1863 0.957465C15.4845 0.992664 15.6398 1.14381 15.675 1.44612C15.7744 2.29919 15.6108 3.3531 15.6605 4.22895C15.6005 4.49398 15.3913 4.59544 15.176 4.59544C14.9089 4.59544 14.6335 4.43808 14.6335 4.24344V2.77956C14.0455 3.17711 13.4988 4.06123 12.9398 4.43394C12.8114 4.51883 12.683 4.5561 12.5671 4.5561C12.1716 4.5561 11.9086 4.12749 12.1985 3.69061C12.5712 3.13155 13.4553 2.587 13.8529 1.99689H12.389C12.0391 1.99689 11.8072 1.1024 12.4035 0.969888C12.5236 0.976099 12.6458 0.98024 12.7721 0.98024C13.3435 0.98024 13.9626 0.922264 14.5403 0.922264M14.5403 0.769043C14.2463 0.769043 13.9399 0.783537 13.6438 0.798031C13.3539 0.812525 13.0537 0.827018 12.7721 0.827018C12.6416 0.827018 12.5236 0.824948 12.4118 0.818736H12.3911L12.3704 0.822878C12.037 0.897418 11.8465 1.18316 11.8879 1.55171C11.9211 1.84366 12.1074 2.15425 12.3911 2.15425H13.532C13.3518 2.35302 13.1261 2.55387 12.9067 2.74643C12.5919 3.02389 12.2668 3.31169 12.0701 3.60571C11.9024 3.85832 11.8734 4.14613 11.9977 4.37596C12.1074 4.58302 12.3269 4.71139 12.5671 4.71139C12.7203 4.71139 12.8797 4.65963 13.0267 4.56231C13.3208 4.36561 13.6086 4.04053 13.886 3.7258C14.0807 3.50632 14.2794 3.28063 14.4782 3.1005V4.24137C14.4782 4.54575 14.8385 4.74866 15.176 4.74866C15.5135 4.74866 15.7433 4.56231 15.8116 4.26001L15.8158 4.2393V4.2186C15.793 3.83555 15.8137 3.40487 15.8344 2.98661C15.8593 2.45655 15.8862 1.90992 15.8303 1.42541C15.7868 1.05478 15.5777 0.843584 15.207 0.802173C15.0124 0.779397 14.795 0.769043 14.5424 0.769043H14.5403Z" fill="white"/>
<path d="M7.24141 20.5492C5.93074 20.5492 4.75259 19.7375 4.21217 18.4703C3.1624 18.2985 1.37757 17.9548 1.18087 16.4081C1.0525 15.4059 1.26783 14.7682 1.5163 14.0311C1.58049 13.8426 1.64468 13.648 1.70886 13.4347C1.77719 13.207 1.81239 12.9626 1.84759 12.7038C1.91178 12.2462 1.98011 11.7721 2.24307 11.358C2.69031 10.656 4.5828 9.29775 5.23089 8.9354C6.3904 8.28732 7.72177 8.10304 8.98482 7.96845C10.1216 7.84836 11.3432 7.78624 12.6145 7.78624C12.9562 7.78624 13.3019 7.79038 13.6519 7.79866L8.80882 5.45479L8.7964 5.44651C8.51066 5.25394 8.38642 4.92887 8.4796 4.62035C8.5707 4.32012 8.84402 4.12549 9.17531 4.12549C9.21051 4.12549 9.24778 4.12756 9.28505 4.1317L9.31818 4.13584L17.6646 8.0637C19.5095 8.08233 21.081 8.99338 22.6029 9.87544C23.4332 10.3579 24.2179 10.8113 25.0441 11.1302C26.0193 11.507 27.0484 11.7741 28.1396 12.0578C29.3032 12.3601 30.5062 12.6728 31.6326 13.1304L31.7527 13.178C32.4194 13.4472 33.2477 13.7805 33.5355 14.5135C33.7964 15.1802 33.9227 16.9713 33.6866 17.638C33.6059 17.8678 33.1462 18.6132 32.9495 18.7768C32.7611 18.9321 32.4153 19.0045 32.0447 19.0708L31.9784 19.0832C31.7589 19.1226 31.4525 19.1433 31.1295 19.166C30.7071 19.193 30.2288 19.2261 30.0404 19.3027C30.0052 19.3255 29.8644 19.4704 29.7733 19.5657C29.6345 19.7085 29.4917 19.8576 29.3778 19.9404C28.8291 20.3338 28.1851 20.5409 27.5184 20.5409C26.7047 20.5409 25.9137 20.2324 25.2884 19.6733C25.2097 19.6029 25.1497 19.518 25.0917 19.4373C25.0337 19.3565 24.9633 19.2572 24.9095 19.2385C24.3049 19.2095 23.6879 19.2054 23.0916 19.1992C22.607 19.195 22.108 19.1909 21.6173 19.1743C19.6171 19.1081 17.5797 19.0501 15.6106 18.9963C13.9293 18.9486 12.246 18.9031 10.5626 18.8493C10.4694 18.8472 10.3783 18.8244 10.2976 18.8058C10.2292 18.7892 10.165 18.7747 10.1153 18.7747C10.1071 18.7747 10.0967 18.7747 10.0884 18.7747C10.0677 18.7789 10.0387 18.8513 10.018 18.9052C9.99318 18.9693 9.96419 19.0397 9.91657 19.106C9.26848 20.0212 8.29325 20.545 7.24555 20.545L7.24141 20.5492ZM7.19999 15.6709C6.21027 15.6709 5.40482 16.4764 5.40482 17.4661C5.40482 18.4558 6.21027 19.2613 7.19999 19.2613C8.18972 19.2613 8.99517 18.4558 8.99517 17.4661C8.99517 16.4764 8.18972 15.6709 7.19999 15.6709ZM27.4811 15.6399C26.4914 15.6399 25.686 16.4453 25.686 17.4351C25.686 18.4248 26.4914 19.2302 27.4811 19.2302C28.4709 19.2302 29.2763 18.4248 29.2763 17.4351C29.2763 16.4453 28.4709 15.6399 27.4811 15.6399ZM27.5081 14.1284C27.9677 14.1284 28.4212 14.2278 28.8581 14.4203C29.796 14.8365 30.587 15.8718 30.7029 16.8284C30.7278 17.0375 30.7195 17.2818 30.7112 17.52C30.7071 17.6131 30.705 17.7022 30.705 17.7871C30.7091 17.7871 30.7112 17.7871 30.7154 17.7871C31.0404 17.7663 31.8128 17.6752 32.0426 17.6069C32.1337 17.5075 32.349 17.1079 32.3697 17.0085C32.4153 16.7228 32.2973 15.5094 32.2186 15.1719C32.1482 14.8717 31.2516 14.5425 30.9121 14.4183L30.7651 14.3644C29.7629 13.9855 28.6696 13.706 27.6137 13.4347C26.5618 13.1656 25.4727 12.8881 24.4892 12.5113C23.7003 12.209 22.8741 11.7141 22.0749 11.2358C21.1452 10.6788 20.1824 10.1011 19.2672 9.81746C17.6646 9.32467 14.8838 9.25013 13.3703 9.25013C12.2667 9.25013 11.1403 9.2874 10.194 9.35366C7.39256 9.55036 5.95766 9.82989 3.98027 11.6706C3.39223 12.2172 3.36738 12.4057 3.30734 12.8591C3.28042 13.0538 3.24936 13.2981 3.16447 13.6211C3.08372 13.9317 2.99054 14.1884 2.89944 14.4348C2.69859 14.9794 2.54123 15.41 2.61163 16.1844C2.65718 16.6876 3.44399 16.8408 4.01547 16.9526C4.02789 16.9547 4.03825 16.9568 4.05067 16.9588C4.33848 15.056 5.821 14.2008 7.21035 14.2008C8.08619 14.2008 8.92477 14.5383 9.51074 15.1264C10.0781 15.6958 10.3907 16.466 10.4135 17.3605L10.4404 17.3729L24.3339 17.7726C24.2159 16.8739 24.4561 16.0105 25.0234 15.3127C25.6383 14.557 26.5452 14.1242 27.5081 14.1242V14.1284Z" fill="white"/>
<path d="M9.17749 4.33476C9.20441 4.33476 9.2334 4.33476 9.26239 4.34097L17.6212 8.27504C20.402 8.27918 22.5678 10.3994 24.9717 11.327C27.0361 12.1263 29.4255 12.4596 31.5561 13.3251C32.2021 13.5881 33.0738 13.9008 33.3451 14.5923C33.5873 15.2114 33.7157 16.9465 33.4942 17.5719C33.4196 17.781 32.9807 18.487 32.8192 18.6196C32.6411 18.7666 32.1814 18.837 31.9433 18.8805C31.434 18.9736 30.3345 18.9591 29.9639 19.1124C29.8417 19.162 29.4628 19.6259 29.2578 19.7729C28.7277 20.1518 28.1211 20.3361 27.5185 20.3361C26.769 20.3361 26.0215 20.0545 25.4252 19.5203C25.2575 19.3691 25.1498 19.073 24.9365 19.0337C23.8329 18.9819 22.7231 19.0068 21.6195 18.9695C17.938 18.8473 14.2524 18.7624 10.5668 18.6444C10.4178 18.6403 10.2563 18.5699 10.1134 18.5699C10.0927 18.5699 10.072 18.5699 10.0513 18.574C9.8525 18.6071 9.84421 18.8473 9.74483 18.9881C9.0926 19.9075 8.16085 20.3402 7.24359 20.3402C6.05301 20.3402 4.88108 19.6134 4.36137 18.2841C3.19564 18.0957 1.56818 17.7872 1.38804 16.3813C1.23482 15.1762 1.59924 14.5281 1.90982 13.4929C2.10445 12.8406 2.04027 12.0662 2.42125 11.4678C2.82294 10.8384 4.64503 9.50081 5.33453 9.11568C6.45884 8.48623 7.73845 8.31024 9.00978 8.17565C10.1941 8.05142 11.4096 7.99551 12.6188 7.99551C13.2938 7.99551 13.9688 8.01208 14.6334 8.0452L8.9166 5.27893C8.46108 4.97249 8.65364 4.33683 9.17956 4.33683M4.22885 17.2137C4.41106 15.3274 5.81076 14.4143 7.21046 14.4143C8.71369 14.4143 10.2148 15.4661 10.2086 17.4952L10.3888 17.5864L24.5804 17.9943C24.1684 16.0065 25.6902 14.3376 27.5082 14.3376C27.9223 14.3376 28.3509 14.4246 28.7754 14.613C29.6077 14.9816 30.3883 15.9361 30.4981 16.8575C30.5312 17.1433 30.4981 17.5304 30.4981 17.8328C30.4981 17.8535 30.409 17.9239 30.4339 17.9943C30.4442 17.9943 30.4546 17.9943 30.467 17.9943C30.5333 17.9943 30.6016 18.0005 30.6679 18.0005C30.6886 18.0005 30.7093 18.0005 30.73 18.0005C31.0198 17.9818 31.904 17.8866 32.14 17.8017C32.2456 17.7644 32.5541 17.1909 32.5769 17.0521C32.6307 16.7209 32.5044 15.4847 32.4237 15.1327C32.3181 14.6793 31.2704 14.3397 30.8418 14.1782C28.8209 13.4121 26.5164 13.0705 24.5659 12.3271C22.8846 11.6853 21.0708 10.1655 19.3315 9.62918C17.9132 9.1923 15.5258 9.05357 13.3724 9.05357C12.1653 9.05357 11.0327 9.09705 10.1817 9.1571C7.4258 9.35173 5.906 9.60641 3.84165 11.5279C2.93475 12.3727 3.24326 12.5114 2.96788 13.5798C2.7132 14.5654 2.30116 15.0333 2.4109 16.2136C2.47922 16.9673 3.63874 17.0853 4.23506 17.2178M27.4813 19.4354C28.5869 19.4354 29.4835 18.5388 29.4835 17.4331C29.4835 16.3274 28.5869 15.4309 27.4813 15.4309C26.3756 15.4309 25.479 16.3274 25.479 17.4331C25.479 18.5388 26.3756 19.4354 27.4813 19.4354ZM7.20011 19.4664C8.30579 19.4664 9.20234 18.5699 9.20234 17.4642C9.20234 16.3585 8.30579 15.462 7.20011 15.462C6.09443 15.462 5.19787 16.3585 5.19787 17.4642C5.19787 18.5699 6.09443 19.4664 7.20011 19.4664ZM9.17749 3.92065C8.75303 3.92065 8.4031 4.17325 8.28301 4.56252C8.16085 4.96007 8.31821 5.37625 8.68263 5.62058L8.70747 5.63714L8.73439 5.64956L12.7244 7.5814C12.6892 7.5814 12.6519 7.5814 12.6167 7.5814C11.3392 7.5814 10.1092 7.64352 8.96422 7.76361C7.67841 7.90026 6.32426 8.08869 5.12954 8.75541C4.4504 9.13639 2.53927 10.505 2.06718 11.2463C1.77937 11.6977 1.70691 12.2153 1.64065 12.6729C1.60545 12.9234 1.57232 13.1616 1.50813 13.3728C1.44601 13.5798 1.37976 13.7744 1.31764 13.9629C1.07124 14.6938 0.83934 15.3833 0.973926 16.433C1.18305 18.075 2.95338 18.4684 4.06735 18.6548C4.6616 19.9385 5.88323 20.7543 7.24152 20.7543C8.35755 20.7543 9.39283 20.1973 10.0803 19.2283C10.1362 19.1476 10.1714 19.0668 10.1983 18.9985C10.2148 19.0026 10.2293 19.0068 10.2438 19.0088C10.3329 19.0295 10.4343 19.0544 10.5503 19.0585C12.2336 19.1124 13.946 19.16 15.6004 19.2055C17.5674 19.2594 19.6028 19.3173 21.6029 19.3836C22.0978 19.4002 22.5989 19.4043 23.0855 19.4084C23.659 19.4126 24.2512 19.4188 24.8309 19.4436C24.8579 19.4747 24.8931 19.5244 24.9179 19.5596C24.98 19.6466 25.0504 19.7439 25.1457 19.8288C25.8082 20.423 26.651 20.7502 27.5144 20.7502C28.2267 20.7502 28.9099 20.5286 29.4938 20.1104C29.6222 20.0172 29.7734 19.8619 29.9183 19.7107C29.9887 19.6362 30.0922 19.5306 30.144 19.4851C30.3262 19.4271 30.7942 19.396 31.1399 19.3732C31.4712 19.3505 31.7818 19.3298 32.0137 19.2884L32.08 19.2759C32.4775 19.2035 32.8523 19.1248 33.0801 18.9384C33.3265 18.7355 33.7965 17.9487 33.8814 17.7085C34.136 16.9942 34.0056 15.1493 33.7281 14.4391C33.4093 13.6233 32.4962 13.2568 31.8294 12.9876L31.7093 12.94C30.5726 12.4762 29.3613 12.1636 28.1915 11.8592C27.1065 11.5776 26.0836 11.3126 25.1187 10.9378C24.3092 10.6251 23.5306 10.1737 22.7086 9.69544C21.1764 8.80717 19.5924 7.88991 17.7144 7.85678L9.43838 3.96206L9.37834 3.93307L9.31208 3.92479C9.26653 3.91857 9.22097 3.9165 9.17749 3.9165V3.92065ZM3.88307 16.7209C3.43375 16.6277 2.84571 16.4765 2.81673 16.1701C2.75047 15.4433 2.90162 15.0313 3.09211 14.5116C3.18114 14.2714 3.28053 14.0001 3.36335 13.6771C3.45032 13.3417 3.48345 13.0912 3.51036 12.8903C3.56627 12.4659 3.5849 12.323 4.11911 11.8261C6.04887 10.0309 7.45478 9.75756 10.2066 9.565C11.1466 9.49874 12.2688 9.46354 13.3683 9.46354C15.9627 9.46354 18.0354 9.66231 19.2052 10.0226C20.0976 10.298 21.048 10.8674 21.9674 11.4202C22.7728 11.9047 23.6072 12.4037 24.4127 12.7123C25.4066 13.0912 26.5019 13.3728 27.5599 13.6419C28.6097 13.9111 29.6968 14.1886 30.6886 14.5633C30.732 14.5799 30.7838 14.5985 30.8376 14.6192C31.7342 14.9485 31.9723 15.1327 32.0158 15.2321C32.0945 15.5676 32.198 16.6981 32.1649 16.9714C32.1338 17.0625 32.0013 17.313 31.9185 17.4311C31.7135 17.4766 31.2538 17.5367 30.9142 17.5677C30.9142 17.5553 30.9142 17.5449 30.9142 17.5325C30.9225 17.2861 30.9308 17.0335 30.9039 16.8099C30.7817 15.785 29.9369 14.6793 28.9389 14.2362C28.4751 14.0312 27.9927 13.9256 27.504 13.9256C26.477 13.9256 25.5122 14.3873 24.8579 15.1907C24.3133 15.8595 24.0483 16.7043 24.1021 17.5677L10.6083 17.1805C10.5461 16.3109 10.2211 15.5572 9.65372 14.9878C9.02841 14.3604 8.13807 14.0022 7.20839 14.0022C5.78177 14.0022 4.26198 14.847 3.881 16.7229L3.88307 16.7209ZM27.4813 19.0213C26.6054 19.0213 25.8931 18.309 25.8931 17.4331C25.8931 16.5573 26.6054 15.845 27.4813 15.845C28.3571 15.845 29.0694 16.5573 29.0694 17.4331C29.0694 18.309 28.3571 19.0213 27.4813 19.0213ZM7.20011 19.0523C6.32426 19.0523 5.61198 18.34 5.61198 17.4642C5.61198 16.5883 6.32426 15.8761 7.20011 15.8761C8.07595 15.8761 8.78823 16.5883 8.78823 17.4642C8.78823 18.34 8.07595 19.0523 7.20011 19.0523Z" fill="white"/>
</svg>
