<svg width="33" height="33" viewBox="0 0 33 33" fill="none" xmlns="http://www.w3.org/2000/svg">
<path d="M28.6179 0.729727C29.4047 0.885019 30.0922 1.10657 30.7464 1.5828C31.7838 2.33648 32.3511 3.43595 32.5727 4.6845C32.5499 5.00958 32.6058 5.37193 32.5727 5.68872C32.5375 6.02829 32.3449 6.66189 32.2083 6.98696C31.6389 8.32455 30.2619 9.41366 28.8084 9.58138C29.413 10.7968 29.2246 12.153 28.3674 13.1883C27.3921 14.3664 25.9966 15.4141 24.982 16.5819C23.9695 17.3543 23.367 16.2921 22.6899 15.6709L21.9072 16.4556C23.4332 17.1534 22.5864 19.1474 21.0894 18.3399L13.4655 13.9109C12.7056 13.0599 13.5339 11.8279 14.6064 12.2669C14.7638 12.3311 15.4015 12.799 15.505 12.7514L17.6377 10.6146C17.0186 9.92923 15.9461 9.34533 16.7267 8.32041C17.8841 7.3079 18.9215 5.93926 20.0851 4.96195C21.1349 4.08197 22.487 3.87905 23.7252 4.49194C23.897 3.03219 24.9799 1.66562 26.3196 1.09C26.6198 0.96163 27.2431 0.758715 27.5557 0.725586H28.6221L28.6179 0.729727ZM27.7876 2.75681C24.6693 3.11915 25.1166 8.02224 28.4543 7.63091C31.5333 7.26856 31.086 2.37582 27.7876 2.75681ZM22.1391 6.14425C21.2198 6.23535 19.758 8.31212 18.9794 8.89188L18.8925 9.04303L24.3091 14.4161L26.7958 11.9397C27.2969 11.2917 27.2762 10.7823 26.7668 10.1508C25.5266 9.0948 24.4043 7.54602 23.1578 6.53972C22.8762 6.31196 22.5222 6.10698 22.1391 6.14632V6.14425ZM19.0457 12.0329L17.3189 13.8198L20.1038 15.4121L21.2736 14.2608L19.0457 12.0329Z" fill="white"/>
<path d="M6.19163 19.8949C6.63473 19.8038 6.84593 19.9176 7.21449 20.0998C9.69295 21.3153 12.0948 23.098 14.5774 24.3507C15.6272 25.1147 14.7865 26.62 13.5732 26.1086C13.3558 26.0175 12.1383 25.2038 12.0451 25.2473L9.3803 27.9204C9.75093 32.1878 4.47307 34.6517 1.566 31.403C-1.18578 28.3283 1.36515 23.5805 5.3924 23.9325L6.95981 22.3609C6.99294 22.218 6.03013 21.7811 5.86449 21.6424C5.28059 21.1517 5.43795 20.0543 6.19163 19.899V19.8949ZM8.81296 23.3486L7.46917 24.6923L8.57071 25.8436C8.79019 25.6614 10.1982 24.3611 10.2251 24.241C10.2458 24.1519 10.1754 24.1354 10.1236 24.0981C9.74472 23.8206 9.20637 23.6281 8.81504 23.3506L8.81296 23.3486ZM3.15619 30.1566C5.36962 32.3721 8.81711 29.1482 6.74447 26.7878C4.5414 24.2782 0.79575 27.7961 3.15619 30.1566Z" fill="white"/>
<path d="M11.4651 14.7472C11.5624 14.7306 11.6577 14.7182 11.7571 14.7368C14.4736 16.1428 17.0867 17.7909 19.7619 19.29C20.646 20.0582 19.942 21.4268 18.7804 21.0251L11.0469 16.5817C10.2849 16.062 10.5541 14.8942 11.4651 14.7472Z" fill="white"/>
<path d="M8.82967 17.3211C9.04915 17.2838 9.28519 17.2879 9.48811 17.3852L17.1264 21.7997C18.141 22.543 17.4101 24.0193 16.174 23.5679L8.3845 19.0541C7.78197 18.5365 8.047 17.4515 8.82967 17.3211Z" fill="white"/>
</svg>
