<svg width="33" height="32" viewBox="0 0 33 32" fill="none" xmlns="http://www.w3.org/2000/svg">
<path d="M16.6294 31.4403C13.1964 31.4403 9.80279 30.2746 7.07586 28.1564C4.18743 25.914 2.26388 22.8268 1.51433 19.2302L1.19547 17.0023V16.9836C1.20789 16.7124 1.20168 16.4287 1.19547 16.1554C1.18719 15.8448 1.1789 15.5239 1.19754 15.2071C1.6365 7.55429 7.97241 1.21423 15.6231 0.777344H17.4204L19.6317 1.09207C25.45 2.33026 29.9431 6.68258 31.376 12.4532C32.8192 18.2674 30.9225 24.0401 26.3072 27.8996C23.5348 30.2166 20.1887 31.4403 16.6315 31.4403H16.6294ZM16.5652 2.18947C16.2961 2.18947 16.0228 2.19775 15.7515 2.21224C10.6207 2.50212 6.22486 5.46095 3.9928 10.1259C1.77108 14.7661 2.22661 20.0232 5.21029 24.1913C7.85025 27.8789 11.9665 29.995 16.5031 29.995C22.0315 29.995 26.8787 26.8975 29.1543 21.9095C31.1296 17.58 30.7672 12.6003 28.1873 8.5875C25.6115 4.58304 21.2675 2.19154 16.5652 2.19154V2.18947Z" fill="white"/>
<path d="M17.4059 0.984171L19.6007 1.2989C31.8688 3.90987 35.954 19.5675 26.1727 27.742C23.3029 30.1418 19.9361 31.2351 16.6295 31.2351C9.82766 31.2351 3.26398 26.6074 1.71727 19.1885L1.40255 16.9917C1.4274 16.4057 1.36942 15.8032 1.40255 15.2193C1.8353 7.66173 8.07804 1.41692 15.6335 0.984171H17.4059ZM16.5011 30.1998C21.7127 30.1998 26.8849 27.3797 29.3427 21.9921C33.6288 12.5959 26.682 1.98011 16.5653 1.98011C16.292 1.98011 16.0166 1.98839 15.7391 2.00289C4.71131 2.62613 -1.4424 15.2545 5.04052 24.307C7.88548 28.2804 12.2067 30.1977 16.5011 30.1977M17.4349 0.570059H15.6107C7.85649 1.01523 1.43568 7.44018 0.990507 15.1965C0.971872 15.5195 0.980154 15.8467 0.988437 16.1614C0.994648 16.4451 1.00293 16.7101 0.990507 16.9751V17.0124L0.994648 17.0497L1.30937 19.2465V19.2589L1.31351 19.2714C2.07341 22.9176 4.02181 26.0462 6.94958 28.3197C9.71378 30.4648 13.153 31.6471 16.6315 31.6471C20.1101 31.6471 23.63 30.4048 26.4398 28.0568C28.8106 26.0752 30.5209 23.5264 31.3843 20.6814C32.1939 18.0208 32.2601 15.1572 31.5768 12.4012C30.8894 9.62877 29.4794 7.10889 27.4999 5.11287C25.3941 2.98848 22.6941 1.52873 19.6877 0.888925H19.6732L19.6587 0.884785L17.4639 0.570059L17.4349 0.565918V0.570059ZM16.5011 29.7857C12.0328 29.7857 7.97865 27.7027 5.37596 24.0689C2.43783 19.965 1.98852 14.7845 4.1771 10.2147C6.37604 5.62016 10.7077 2.70481 15.7619 2.41907C16.029 2.40458 16.2982 2.39629 16.5653 2.39629C21.1971 2.39629 25.477 4.75259 28.0134 8.69701C30.5561 12.6497 30.9122 17.5569 28.9659 21.8223C26.7255 26.7357 21.9487 29.7878 16.5011 29.7878V29.7857Z" fill="white"/>
<path d="M16.4743 28.3899C12.3249 28.3899 8.61442 26.4022 6.29747 22.9381C3.81486 19.2277 3.5312 14.6227 5.53757 10.6183C7.55637 6.58688 11.4345 4.04009 15.9069 3.80611C16.1244 3.79369 16.3459 3.78955 16.5612 3.78955C20.5781 3.78955 24.3528 5.80421 26.6552 9.17715C28.9887 12.5956 29.4691 16.7451 27.9762 20.5673C26.1169 25.3213 21.6031 28.392 16.4743 28.392V28.3899ZM16.1057 26.9778C16.174 26.9964 16.3231 27.0192 16.553 27.0192C16.7207 27.0192 16.8387 27.0068 16.907 26.9964C16.9754 26.7086 17.025 26.4063 17.0747 26.1143C17.1306 25.7913 17.1866 25.4559 17.2673 25.1308C18.4744 20.1594 22.3878 16.068 27.2619 14.6538L27.0403 13.3473C26.4109 13.5067 25.7732 13.7407 25.1044 13.985C23.8703 14.4343 22.5928 14.9002 21.3173 14.9002C21.2407 14.9002 21.1641 14.9002 21.0896 14.896C20.2758 14.8588 19.5304 14.6 18.8078 14.3515C18.0375 14.0844 17.3087 13.8318 16.5115 13.8318C15.6792 13.8359 14.9607 14.103 14.2008 14.3867C13.5299 14.6372 12.8363 14.896 12.0764 14.954C11.9294 14.9644 11.7782 14.9706 11.625 14.9706C10.333 14.9706 9.00576 14.5751 7.72201 14.19C7.09256 14.0016 6.49624 13.8235 5.91234 13.693C5.85437 13.9063 5.7819 14.3598 5.75291 14.6186C10.6312 16.0866 14.5507 20.176 15.7599 25.0811C15.7931 25.2178 15.851 25.5574 15.9173 25.9487C15.9773 26.2966 16.0622 26.8038 16.1057 26.9778ZM27.4089 16.0887C22.6425 17.5774 18.9921 21.9359 18.4082 26.839C21.5368 26.2282 24.3217 24.2964 25.8953 21.6295C26.854 20.0041 27.3634 18.1406 27.4089 16.0887ZM5.62868 16.0887C5.67423 18.1406 6.18359 20.0041 7.14226 21.6295C8.71588 24.2964 11.5008 26.2282 14.6294 26.839C14.0455 21.9359 10.3951 17.5795 5.62868 16.0887ZM6.33681 12.3182C6.86687 12.4486 7.40936 12.6143 7.93528 12.7737C9.12585 13.1381 10.3578 13.515 11.5608 13.515C11.9439 13.515 12.3 13.4777 12.6479 13.4011C13.149 13.2914 13.5962 13.1236 14.0269 12.9621C14.7474 12.6909 15.4928 12.4114 16.4867 12.4072C17.5489 12.4072 18.3523 12.6805 19.1287 12.9435C19.87 13.1961 20.5698 13.4322 21.4519 13.4322C21.8495 13.4322 22.2532 13.3845 22.6839 13.2851C23.4024 13.1216 24.1416 12.8503 24.858 12.5874C25.4212 12.3803 26.0009 12.1691 26.5745 12.0055C24.947 7.94103 20.9136 5.22652 16.466 5.22652C14.1594 5.22652 11.9542 5.95329 10.0907 7.32607C8.38666 8.58083 7.05943 10.347 6.33474 12.3161L6.33681 12.3182Z" fill="white"/>
<path d="M16.5612 3.99675C24.9118 3.99675 30.8853 12.5564 27.7836 20.4908C25.8187 25.5161 21.162 28.183 16.4742 28.183C12.6954 28.183 8.89596 26.4499 6.46926 22.8223C1.23902 15.0039 6.61627 4.4999 15.9193 4.01331C16.1346 4.00296 16.35 3.99675 16.5632 3.99675M11.5608 13.7242C11.9397 13.7242 12.3165 13.689 12.6934 13.6062C14.0537 13.3081 14.9482 12.6206 16.4908 12.6165C16.497 12.6165 16.5032 12.6165 16.5094 12.6165C18.4951 12.6165 19.5925 13.6414 21.4539 13.6414C21.8411 13.6414 22.2635 13.5979 22.7315 13.4903C24.1001 13.1776 25.4832 12.5047 26.8519 12.1486C25.1644 7.65543 20.8783 5.02375 16.468 5.02375C14.2256 5.02375 11.9521 5.70289 9.96851 7.16471C8.17541 8.48573 6.78606 10.3617 6.06343 12.4695C7.84205 12.8712 9.70555 13.7263 11.5587 13.7263M21.3152 14.6912C21.2427 14.6912 21.1682 14.6912 21.0957 14.6871C19.4765 14.6146 18.1203 13.6228 16.5094 13.6228C16.5032 13.6228 16.497 13.6228 16.4908 13.6228C14.8882 13.6311 13.6168 14.627 12.0577 14.7471C11.9128 14.7575 11.7678 14.7637 11.6208 14.7637C9.69106 14.7637 7.64534 13.8485 5.79633 13.4571C5.68452 13.4675 5.5313 14.5877 5.52923 14.7699C10.4116 16.1737 14.3353 20.1823 15.5549 25.1289C15.6315 25.4395 15.8696 27.0276 15.9297 27.1166C15.9814 27.1912 16.2713 27.2243 16.5488 27.2243C16.7952 27.2243 17.0312 27.1974 17.0788 27.1518C17.2403 26.51 17.3066 25.8308 17.466 25.1765C18.6649 20.2424 22.601 16.1468 27.4937 14.8009L27.2039 13.0927C25.3031 13.5255 23.2946 14.6912 21.3131 14.6912M27.62 15.8093C22.5989 17.2525 18.6732 21.8657 18.1741 27.0918C21.4436 26.5369 24.3879 24.5926 26.0754 21.7353C27.1355 19.938 27.618 17.8985 27.6221 15.8114M14.8654 27.0918C14.3664 21.8657 10.4385 17.2525 5.41949 15.8093C5.42363 17.8964 5.90607 19.9359 6.9662 21.7332C8.65371 24.5906 11.598 26.5369 14.8675 27.0897M16.5612 3.58264C16.3396 3.58264 16.116 3.58885 15.8965 3.5992C11.3475 3.83732 7.40516 6.42552 5.35116 10.5252C3.31166 14.598 3.59946 19.2796 6.12348 23.0521C8.48185 26.5762 12.2544 28.5971 16.4742 28.5971C18.9444 28.5971 21.3297 27.8952 23.3754 26.5679C25.5453 25.16 27.2039 23.1101 28.1687 20.6399C28.9431 18.6584 29.1978 16.6023 28.9245 14.5256C28.6698 12.5875 27.9451 10.6971 26.825 9.0572C24.4831 5.62835 20.6464 3.58057 16.5612 3.58057V3.58264ZM6.61213 12.1755C7.3389 10.3306 8.60608 8.68036 10.2149 7.496C12.0432 6.14806 14.207 5.43579 16.468 5.43579C18.6048 5.43579 20.6733 6.0611 22.4519 7.24339C24.1726 8.38841 25.4936 9.98274 26.297 11.8732C25.7876 12.0285 25.2803 12.2127 24.7875 12.3949C24.0773 12.6558 23.3443 12.9229 22.6383 13.0844C22.2221 13.1797 21.8349 13.2252 21.4518 13.2252C20.6029 13.2252 19.9196 12.9933 19.1949 12.7469C18.4019 12.4778 17.584 12.2003 16.5073 12.2003H16.4866C15.4555 12.2045 14.6915 12.4902 13.9543 12.7676C13.5092 12.9354 13.0909 13.0927 12.6043 13.1983C12.271 13.2708 11.9293 13.306 11.5608 13.306C10.3888 13.306 9.17135 12.9333 7.99527 12.573C7.54181 12.4343 7.07594 12.2914 6.6142 12.1713L6.61213 12.1755ZM21.3152 15.1053C22.6279 15.1053 23.922 14.6332 25.1726 14.1777C25.7607 13.9624 26.3218 13.7594 26.8726 13.6042L27.0258 14.5048C22.1641 15.9853 18.2756 20.0974 17.0643 25.0792C16.9836 25.4126 16.9256 25.7521 16.8697 26.0793C16.8262 26.3298 16.7848 26.5721 16.7351 26.8061C16.6833 26.8102 16.6212 26.8123 16.5508 26.8123C16.4369 26.8123 16.3438 26.8061 16.2775 26.7978C16.234 26.5742 16.1678 26.1932 16.1201 25.9136C16.0518 25.5161 15.9938 25.1745 15.9586 25.0295C15.3437 22.5386 14.0496 20.2217 12.2151 18.3312C10.4717 16.5361 8.32241 15.2047 5.97854 14.4696C6.00132 14.3019 6.03445 14.099 6.0655 13.9396C6.579 14.0638 7.107 14.2212 7.65984 14.3868C8.95808 14.774 10.3019 15.1757 11.6229 15.1757C11.7823 15.1757 11.9397 15.1695 12.0908 15.1591C12.8797 15.0991 13.5879 14.8341 14.2711 14.5794C15.0145 14.3019 15.7164 14.041 16.4929 14.0369H16.5094C17.2714 14.0369 17.9837 14.2833 18.7373 14.5442C19.4724 14.7989 20.2344 15.0639 21.0771 15.1012C21.1558 15.1053 21.2365 15.1074 21.3152 15.1074V15.1053ZM18.6524 26.5762C19.3192 21.9651 22.7315 17.8923 27.1935 16.3766C27.1086 18.2774 26.6138 20.0063 25.7172 21.5241C24.2202 24.0605 21.6071 25.9199 18.6524 26.5762ZM14.3871 26.5762C11.4324 25.9199 8.81935 24.0605 7.32233 21.5241C6.42785 20.0063 5.93092 18.2774 5.84602 16.3766C10.3081 17.8902 13.7204 21.9651 14.3871 26.5762Z" fill="white"/>
<path d="M16.5362 14.5817C20.4496 14.5817 20.4952 20.6153 16.5507 20.6567C16.5362 20.6567 16.5238 20.6567 16.5093 20.6567C12.627 20.6567 12.5173 14.6687 16.4493 14.5817C16.4783 14.5817 16.5072 14.5817 16.5342 14.5817M16.5176 19.6442C16.5176 19.6442 16.5342 19.6442 16.5424 19.6442C19.1576 19.6194 19.1493 15.6129 16.5321 15.6129C16.3913 15.6129 16.2443 15.6253 16.0911 15.6481C13.8735 15.9938 14.0474 19.6442 16.5176 19.6442ZM16.5362 14.1676C16.5052 14.1676 16.4741 14.1676 16.441 14.1676C15.4099 14.1904 14.5444 14.5817 13.9398 15.2961C13.4097 15.9234 13.124 16.7579 13.1343 17.6461C13.1529 19.3481 14.3187 21.0708 16.5093 21.0708H16.5549C18.7662 21.046 19.9133 19.3067 19.903 17.5985C19.8947 15.8924 18.7352 14.1655 16.5362 14.1655V14.1676ZM16.5176 19.2301C15.4513 19.2301 15.0123 18.4288 14.9585 17.7414C14.9026 17.0291 15.2546 16.1967 16.1532 16.058C16.2836 16.0373 16.4099 16.027 16.5321 16.027C17.5984 16.027 18.0809 16.8241 18.085 17.6151C18.0912 18.7208 17.3127 19.2218 16.5383 19.2301H16.5176Z" fill="white"/>
</svg>
