<svg width="29" height="24" viewBox="0 0 29 24" fill="none" xmlns="http://www.w3.org/2000/svg">
<path d="M3.79605 23.5662C2.1541 23.3819 0.876561 22.0526 0.748186 20.4003C0.669504 19.3878 0.65294 17.1412 0.973877 16.2923C1.34658 15.3067 2.66138 14.1161 3.73601 14.1161H21.5842V9.47599C21.5842 9.18197 22.0108 8.86725 22.2675 8.8424C22.2841 8.8424 22.3027 8.84033 22.3193 8.84033C22.5823 8.84033 23.0937 9.02047 23.0937 9.35176V14.1161H25.7502C26.9491 14.1161 28.2929 15.4661 28.6055 16.5822C28.8602 17.4891 28.8354 20.5411 28.4937 21.4293C28.0444 22.5951 26.8683 23.473 25.6363 23.5641H25.6322H3.79605V23.5662ZM4.00104 15.6442C3.22665 15.7539 2.63447 16.2136 2.39014 16.9052C2.17894 17.5015 2.19551 19.5079 2.2597 20.1953C2.34873 21.1747 2.97611 21.8807 3.89544 22.0402L25.5018 22.0547C26.3176 21.9553 26.9698 21.3838 27.1499 20.597C27.2969 19.9592 27.3073 17.5885 27.1271 16.9921C26.8849 16.1908 26.1664 15.667 25.2554 15.6235L4.00311 15.6442H4.00104Z" fill="white"/>
<path d="M22.3195 8.94606C22.5659 8.94606 22.9904 9.11171 22.9904 9.35396V14.2219H25.7505C26.9141 14.2219 28.2061 15.5408 28.5064 16.6134C28.7569 17.5058 28.73 20.5309 28.3966 21.3963C27.9639 22.5207 26.8375 23.3758 25.6283 23.4648H3.79629C2.21852 23.2868 0.974115 21.9761 0.849882 20.3942C0.775342 19.4459 0.752565 17.1703 1.06936 16.3318C1.42136 15.4 2.70303 14.2219 3.73417 14.2219H21.6859V9.4782C21.6859 9.25872 22.0462 8.96884 22.274 8.94813C22.2885 8.94813 22.303 8.94813 22.3175 8.94813M25.4999 22.1583C26.3551 22.0548 27.0549 21.4688 27.2495 20.622C27.3986 19.9759 27.411 17.5824 27.2247 16.9633C26.9576 16.0791 26.1604 15.5615 25.2556 15.5222L4.00128 15.5429C3.21653 15.6526 2.56016 16.1164 2.29306 16.8722C2.07772 17.4809 2.09222 19.5039 2.15641 20.2058C2.24751 21.2038 2.8811 21.9699 3.87704 22.1438L25.502 22.1583M22.3195 8.73901C22.2968 8.73901 22.2761 8.739 22.2574 8.74107C21.9572 8.76799 21.481 9.11585 21.481 9.47612V14.0127H3.73624C2.62228 14.0127 1.26192 15.2406 0.876798 16.2551C0.524803 17.189 0.582779 19.626 0.644896 20.4087C0.777412 22.1086 2.09429 23.4793 3.77351 23.6678H3.78594H3.79836H25.6304H25.6386H25.6469C26.9183 23.5746 28.1295 22.6697 28.5933 21.4667C28.9412 20.564 28.9681 17.4726 28.7093 16.5533C28.5499 15.986 28.1337 15.3524 27.5953 14.8596C26.999 14.313 26.3447 14.0107 25.7546 14.0107H23.2016V9.34982C23.2016 8.93985 22.6384 8.73486 22.3237 8.73486L22.3195 8.73901ZM4.01577 15.7479L25.2556 15.7272C26.1149 15.7665 26.7961 16.2614 27.0259 17.0213C27.1978 17.5927 27.1895 19.9614 27.0466 20.5743C26.8768 21.3135 26.264 21.8519 25.4854 21.9513L3.89154 21.9368C3.03018 21.7794 2.44421 21.1106 2.35932 20.1871C2.28892 19.4231 2.29306 17.483 2.48562 16.9405C2.71546 16.2903 3.27244 15.8576 4.0137 15.7499L4.01577 15.7479Z" fill="white"/>
<path d="M28.0341 4.75711C27.6801 4.75711 27.3571 4.4548 27.0734 4.18977C26.9761 4.09867 26.8829 4.0117 26.8022 3.94959C25.4729 2.94743 23.9199 2.41737 22.3132 2.41737C20.7064 2.41737 19.315 2.90809 18.0706 3.83364C17.9857 3.89575 17.847 4.02413 17.7 4.16078C17.3852 4.45273 17.1865 4.6308 17.0664 4.67221C16.9608 4.70741 16.8531 4.72605 16.7475 4.72605C16.4804 4.72605 16.2402 4.60388 16.1036 4.40097C15.9628 4.19184 15.9462 3.9206 16.0539 3.6535C16.1822 3.33877 17.143 2.61614 17.3252 2.48777C18.5572 1.62228 20.108 1.03838 21.4767 0.926567C21.7334 0.905861 21.9964 0.895508 22.2552 0.895508C24.4852 0.895508 26.6324 1.68853 28.1418 3.07374C28.442 3.34912 28.7361 3.64728 28.7464 4.00135C28.7526 4.1877 28.676 4.3637 28.5187 4.5252C28.3716 4.67635 28.2081 4.75296 28.03 4.75296L28.0341 4.75711Z" fill="white"/>
<path d="M22.2595 0.999165C24.3777 0.999165 26.5062 1.71144 28.0757 3.15048C28.4443 3.48798 28.9267 3.96214 28.4484 4.45493C28.3118 4.59573 28.173 4.65164 28.0343 4.65164C27.6016 4.65164 27.1771 4.10087 26.8645 3.86482C25.5062 2.84197 23.9098 2.3119 22.3134 2.3119C20.8101 2.3119 19.309 2.78192 18.0087 3.74887C17.7809 3.91866 17.2094 4.51291 17.0334 4.57296C16.9361 4.60608 16.8388 4.62265 16.7477 4.62265C16.2777 4.62265 15.9422 4.2044 16.1514 3.69297C16.259 3.43001 17.1204 2.76121 17.3875 2.57279C18.5367 1.76527 20.0751 1.14618 21.4872 1.03022C21.7419 1.00952 22.0007 0.999165 22.2575 0.999165M22.2595 0.792109C21.9986 0.792109 21.7336 0.802462 21.4727 0.825238C20.0875 0.939119 18.516 1.52923 17.2715 2.40508C17.2591 2.41336 16.1203 3.23123 15.9629 3.61636C15.8408 3.91659 15.8615 4.22303 16.0209 4.46114C16.1762 4.69305 16.4495 4.83178 16.7498 4.83178C16.8657 4.83178 16.9837 4.81107 17.1018 4.77173C17.2343 4.72618 17.4165 4.56674 17.7726 4.23752C17.9113 4.10915 18.0542 3.97663 18.1329 3.91659C19.3607 3.00347 20.806 2.51896 22.3134 2.51896C23.8973 2.51896 25.4275 3.04074 26.7402 4.03047C26.8168 4.08844 26.9079 4.17334 27.0032 4.26237C27.2868 4.5274 27.6388 4.85869 28.0343 4.85869C28.2393 4.85869 28.4298 4.77173 28.5975 4.5978C28.7756 4.41352 28.8625 4.21268 28.8563 3.99734C28.8439 3.5708 28.4505 3.21053 28.2165 2.99519C26.6864 1.59342 24.5164 0.790039 22.2595 0.790039V0.792109Z" fill="white"/>
<path d="M25.239 7.56067C24.9119 7.56067 24.5909 7.31221 24.2824 7.06995C24.1209 6.94365 23.9677 6.82355 23.8331 6.75937C23.3859 6.54196 22.8786 6.42808 22.3672 6.42808C21.7294 6.42808 21.1165 6.59993 20.5948 6.92708C20.485 6.99541 20.3815 7.08651 20.28 7.17141C20.0626 7.35776 19.8369 7.55032 19.5533 7.55032C19.4145 7.55032 19.2758 7.50477 19.1329 7.41159C18.8824 7.25009 18.7582 7.05546 18.7623 6.82977C18.7727 6.28935 19.5491 5.77792 19.8804 5.58329C20.5989 5.16296 21.3899 4.92485 22.1663 4.89379C22.2201 4.89172 22.274 4.88965 22.3299 4.88965C23.39 4.88965 24.535 5.2727 25.3156 5.88973C25.6117 6.1237 26.2288 6.61029 25.7939 7.22938C25.6407 7.44679 25.4544 7.55653 25.239 7.55653V7.56067Z" fill="white"/>
<path d="M22.3301 4.99733C23.3322 4.99733 24.4731 5.35968 25.2516 5.97463C25.6285 6.2728 26.0633 6.67034 25.7092 7.17349C25.5643 7.37848 25.4049 7.45716 25.2392 7.45716C24.7816 7.45716 24.2743 6.85877 23.8768 6.6662C23.4068 6.43844 22.885 6.32456 22.3653 6.32456C21.7255 6.32456 21.0857 6.49642 20.539 6.84013C20.1933 7.05754 19.92 7.44887 19.5514 7.44887C19.4396 7.44887 19.3195 7.41367 19.187 7.32671C18.3153 6.76559 19.4313 5.96842 19.9324 5.6744C20.6074 5.27893 21.3838 5.03046 22.1706 4.9994C22.2224 4.9994 22.2762 4.99733 22.3301 4.99733ZM22.3301 4.79027C22.2742 4.79027 22.2183 4.79027 22.1624 4.79442C21.3673 4.82547 20.5598 5.0698 19.8268 5.49841C19.4789 5.70132 18.6693 6.23967 18.6569 6.83185C18.6528 7.01199 18.7232 7.27702 19.0731 7.50271C19.2325 7.60417 19.392 7.65593 19.5493 7.65593C19.8723 7.65593 20.1125 7.45095 20.3444 7.25217C20.4479 7.16314 20.5453 7.08031 20.6467 7.01613C21.1499 6.69933 21.7441 6.53162 22.3632 6.53162C22.8601 6.53162 23.3509 6.64343 23.7857 6.85255C23.9099 6.9126 24.059 7.02855 24.2164 7.15071C24.5249 7.3909 24.8748 7.66214 25.2372 7.66214C25.4877 7.66214 25.703 7.53791 25.8749 7.28944C26.3656 6.59166 25.674 6.04296 25.378 5.80899C24.5787 5.17747 23.4109 4.78613 22.328 4.78613L22.3301 4.79027Z" fill="white"/>
<path d="M6.16095 19.6299C5.84829 19.6299 5.54392 19.4125 5.42176 19.0999C5.30581 18.8038 5.38035 18.4932 5.6226 18.2716C5.76547 18.1391 5.93526 18.0708 6.11125 18.0708C6.43012 18.0708 6.74899 18.3048 6.87115 18.6257C6.98089 18.9177 6.90635 19.2158 6.66824 19.4249C6.51709 19.5595 6.34109 19.6299 6.16095 19.6299Z" fill="white"/>
<path d="M6.1113 18.1745C6.6393 18.1745 7.10517 18.9012 6.59996 19.3485C6.45709 19.4748 6.30594 19.5265 6.161 19.5265C5.62887 19.5265 5.19198 18.808 5.69305 18.3463C5.82557 18.2242 5.97051 18.1724 6.1113 18.1724M6.1113 17.9674C5.90839 17.9674 5.71376 18.0461 5.55225 18.1952C5.27894 18.4478 5.19405 18.7998 5.32656 19.1373C5.46322 19.4893 5.80693 19.7336 6.161 19.7336C6.36806 19.7336 6.56683 19.6528 6.73662 19.5038C7.00786 19.2636 7.09275 18.9219 6.96645 18.5886C6.82772 18.2221 6.47572 17.9653 6.1113 17.9653V17.9674Z" fill="white"/>
<path d="M10.1302 19.6299C9.81753 19.6299 9.51316 19.4125 9.391 19.0999C9.27505 18.8038 9.34959 18.4932 9.59184 18.2716C9.73471 18.1391 9.9045 18.0708 10.0805 18.0708C10.3994 18.0708 10.7182 18.3048 10.8404 18.6257C10.9501 18.9177 10.8756 19.2158 10.6375 19.4249C10.4863 19.5595 10.3103 19.6299 10.1302 19.6299Z" fill="white"/>
<path d="M10.0805 18.1745C10.6085 18.1745 11.0744 18.9012 10.5692 19.3485C10.4263 19.4748 10.2752 19.5265 10.1302 19.5265C9.5981 19.5265 9.16121 18.808 9.66229 18.3463C9.79481 18.2242 9.93975 18.1724 10.0805 18.1724M10.0805 17.9674C9.87763 17.9674 9.68299 18.0461 9.52149 18.1952C9.24818 18.4478 9.16328 18.7998 9.2958 19.1373C9.43246 19.4893 9.77617 19.7336 10.1302 19.7336C10.3373 19.7336 10.5361 19.6528 10.7059 19.5038C10.9771 19.2636 11.062 18.9219 10.9357 18.5886C10.797 18.2221 10.445 17.9653 10.0805 17.9653V17.9674Z" fill="white"/>
<path d="M14.0994 19.6299C13.7868 19.6299 13.4824 19.4125 13.3602 19.0999C13.2443 18.8038 13.3188 18.4932 13.5611 18.2716C13.7039 18.1391 13.8737 18.0708 14.0497 18.0708C14.3686 18.0708 14.6875 18.3048 14.8096 18.6257C14.9194 18.9177 14.8448 19.2158 14.6067 19.4249C14.4556 19.5595 14.2796 19.6299 14.0994 19.6299Z" fill="white"/>
<path d="M14.0498 18.1745C14.5778 18.1745 15.0437 18.9012 14.5384 19.3485C14.3956 19.4748 14.2444 19.5265 14.0995 19.5265C13.5673 19.5265 13.1305 18.808 13.6315 18.3463C13.764 18.2242 13.909 18.1724 14.0498 18.1724M14.0498 17.9674C13.8469 17.9674 13.6522 18.0461 13.4907 18.1952C13.2174 18.4478 13.1325 18.7998 13.265 19.1373C13.4017 19.4893 13.7454 19.7336 14.0995 19.7336C14.3065 19.7336 14.5053 19.6528 14.6751 19.5038C14.9463 19.2636 15.0312 18.9219 14.9049 18.5886C14.7662 18.2221 14.4142 17.9653 14.0498 17.9653V17.9674Z" fill="white"/>
</svg>
